<svg 
 xmlns="http://www.w3.org/2000/svg"
 xmlns:xlink="http://www.w3.org/1999/xlink"
 width="164px" height="19px">
<path fill-rule="evenodd"  fill="rgb(255, 255, 255)"
 d="M21.974,17.948 L21.630,17.948 L21.630,17.654 L21.630,0.593 L21.630,0.298 L21.630,0.003 L154.925,0.003 C157.950,0.003 160.209,1.219 161.741,3.062 C163.234,4.830 164.000,7.189 164.000,9.473 L164.000,17.433 L164.000,17.727 L164.000,18.022 L21.974,17.948 ZM163.349,9.473 C163.349,7.336 162.660,5.125 161.243,3.430 C159.826,1.735 157.720,0.593 154.925,0.593 L22.281,0.593 L22.281,17.359 L163.349,17.432 L163.349,9.473 ZM28.560,4.941 C28.905,4.978 29.135,4.978 29.173,4.978 C29.326,4.978 29.594,4.978 30.016,4.941 C30.398,4.941 30.667,4.941 30.781,4.941 C30.896,4.941 30.973,4.941 31.088,4.941 C31.853,4.978 32.466,5.125 32.887,5.383 C33.079,5.531 33.232,5.715 33.385,5.973 C33.576,6.268 33.653,6.562 33.653,6.894 C33.653,7.299 33.538,7.705 33.309,8.110 C33.079,8.478 32.696,8.884 32.160,9.289 C32.390,9.621 32.696,9.953 33.040,10.394 C33.385,10.800 33.692,11.131 33.921,11.426 C34.189,11.721 34.419,11.942 34.611,12.163 C35.032,12.569 35.453,12.790 35.874,12.864 C35.965,12.893 36.050,12.897 36.122,12.898 C36.242,12.897 36.358,12.893 36.448,12.864 C36.563,12.864 36.640,12.790 36.678,12.679 C36.717,12.605 36.755,12.458 36.793,12.274 C36.832,11.979 36.832,11.205 36.832,9.989 L36.832,8.073 C36.832,6.783 36.832,6.010 36.832,5.788 C36.793,5.604 36.755,5.457 36.678,5.346 C36.640,5.273 36.487,5.199 36.334,5.162 C36.219,5.125 36.104,5.125 35.874,5.125 C35.759,5.125 35.682,5.088 35.682,5.051 C35.682,4.978 35.759,4.941 35.951,4.941 C36.180,4.941 36.487,4.941 36.870,4.941 C37.253,4.978 37.483,4.978 37.559,4.978 C39.321,4.978 40.278,4.978 40.392,4.941 C40.661,4.941 40.814,4.904 40.890,4.904 C40.929,4.904 40.929,4.867 40.967,4.867 L41.006,4.867 C41.044,4.867 41.044,4.830 41.082,4.830 C41.120,4.830 41.159,4.867 41.159,4.941 C41.159,4.941 41.120,5.015 41.120,5.162 C41.082,5.309 41.082,5.457 41.044,5.641 C41.044,5.678 41.044,5.788 41.044,6.010 C41.006,6.194 41.006,6.341 41.006,6.378 C40.967,6.452 40.929,6.489 40.890,6.489 C40.814,6.489 40.776,6.415 40.776,6.341 C40.776,6.194 40.776,6.047 40.699,5.936 C40.661,5.825 40.584,5.752 40.508,5.678 C40.392,5.641 40.201,5.567 39.971,5.567 C39.703,5.531 39.167,5.494 38.325,5.494 C38.287,5.494 38.248,5.531 38.248,5.604 L38.248,8.368 C38.248,8.442 38.287,8.478 38.325,8.478 C39.397,8.478 39.971,8.478 40.163,8.442 C40.431,8.442 40.622,8.368 40.699,8.294 C40.776,8.184 40.852,8.147 40.890,8.147 C40.929,8.147 40.967,8.184 40.967,8.221 C40.967,8.221 40.967,8.331 40.929,8.478 C40.890,8.589 40.890,8.810 40.890,9.031 C40.852,9.326 40.814,9.547 40.814,9.731 C40.814,9.879 40.776,9.953 40.737,9.953 C40.661,9.953 40.622,9.916 40.622,9.842 C40.622,9.842 40.622,9.805 40.622,9.768 C40.622,9.731 40.622,9.658 40.584,9.621 C40.584,9.584 40.584,9.510 40.584,9.473 C40.508,9.215 40.316,9.068 39.933,9.031 C39.742,9.031 39.206,9.031 38.325,9.031 C38.287,9.031 38.248,9.031 38.248,9.105 L38.248,9.989 L38.248,11.169 L38.248,11.647 C38.287,11.905 38.325,12.090 38.363,12.237 C38.440,12.348 38.555,12.421 38.746,12.495 C38.938,12.532 39.244,12.569 39.627,12.569 C40.125,12.569 40.508,12.532 40.699,12.421 C40.967,12.311 41.120,12.053 41.197,11.610 C41.235,11.537 41.273,11.463 41.312,11.463 C41.388,11.463 41.427,11.537 41.427,11.647 C41.427,11.795 41.388,12.016 41.350,12.274 C41.312,12.569 41.312,12.753 41.273,12.864 C41.235,12.974 41.197,13.084 41.120,13.084 C41.044,13.121 40.890,13.158 40.661,13.158 C40.010,13.158 39.359,13.121 38.708,13.121 C38.095,13.084 37.712,13.084 37.521,13.084 C37.406,13.084 37.176,13.084 36.832,13.084 C36.525,13.084 36.257,13.121 36.104,13.121 L35.032,13.121 C34.496,13.121 34.113,13.048 33.845,12.900 C33.653,12.827 33.500,12.716 33.347,12.569 C33.194,12.421 33.040,12.274 32.887,12.053 C32.696,11.868 32.504,11.610 32.275,11.316 C32.083,11.058 31.853,10.763 31.624,10.432 C31.356,10.063 31.203,9.879 31.164,9.842 C31.126,9.805 31.126,9.805 31.088,9.768 C31.049,9.768 31.011,9.731 30.934,9.731 L29.977,9.731 C29.900,9.731 29.862,9.768 29.862,9.805 L29.862,9.953 C29.862,11.205 29.900,11.979 29.939,12.274 C29.939,12.458 29.977,12.605 30.054,12.716 C30.092,12.790 30.207,12.864 30.360,12.864 C30.590,12.900 30.781,12.900 30.934,12.900 C31.011,12.900 31.049,12.937 31.049,13.011 C31.049,13.084 30.973,13.121 30.820,13.121 C30.590,13.121 30.245,13.084 29.824,13.084 C29.403,13.084 29.173,13.084 29.173,13.084 C29.097,13.084 28.905,13.084 28.560,13.084 C28.216,13.084 27.948,13.121 27.794,13.121 C27.641,13.121 27.565,13.084 27.565,13.011 C27.565,12.937 27.603,12.900 27.718,12.900 C27.871,12.900 28.024,12.900 28.139,12.864 C28.254,12.864 28.331,12.790 28.369,12.716 C28.407,12.605 28.445,12.458 28.484,12.274 C28.522,11.979 28.522,11.205 28.522,9.989 L28.522,8.073 C28.522,6.783 28.522,6.010 28.522,5.788 C28.484,5.604 28.445,5.457 28.407,5.346 C28.331,5.273 28.216,5.199 28.024,5.162 C27.948,5.125 27.794,5.125 27.565,5.125 C27.450,5.125 27.373,5.088 27.373,5.051 C27.373,4.978 27.450,4.941 27.641,4.941 C27.871,4.941 28.177,4.941 28.560,4.941 ZM29.862,8.921 C29.862,9.031 29.900,9.105 29.977,9.105 C30.207,9.179 30.475,9.215 30.820,9.215 C30.934,9.215 31.011,9.215 31.088,9.215 C31.203,9.215 31.279,9.215 31.317,9.179 C31.432,9.179 31.547,9.105 31.624,9.031 C31.815,8.921 32.007,8.699 32.122,8.442 C32.236,8.184 32.313,7.815 32.313,7.410 C32.313,6.931 32.198,6.562 32.045,6.268 C31.853,5.973 31.624,5.752 31.356,5.641 C31.279,5.604 31.164,5.567 31.088,5.531 C30.896,5.457 30.743,5.457 30.590,5.457 C30.283,5.457 30.092,5.457 29.977,5.494 C29.900,5.494 29.862,5.567 29.862,5.641 L29.862,8.921 ZM43.112,6.857 C43.303,6.525 43.494,6.268 43.724,6.047 C43.954,5.825 44.222,5.641 44.490,5.494 C44.988,5.199 45.447,5.015 45.945,4.941 C46.405,4.830 46.941,4.794 47.553,4.794 C47.898,4.794 48.281,4.794 48.702,4.830 C49.123,4.904 49.391,4.941 49.545,4.941 C49.928,5.015 50.234,5.051 50.425,5.088 C50.540,5.088 50.578,5.125 50.578,5.199 C50.578,5.199 50.578,5.309 50.578,5.457 C50.540,5.604 50.540,5.788 50.540,6.010 C50.502,6.268 50.502,6.599 50.502,6.968 C50.502,7.115 50.463,7.189 50.387,7.189 C50.310,7.189 50.272,7.152 50.272,7.078 C50.234,6.673 50.081,6.378 49.889,6.157 C49.774,6.047 49.583,5.899 49.353,5.788 C49.085,5.641 48.817,5.531 48.472,5.457 C48.128,5.383 47.745,5.309 47.362,5.309 C46.941,5.309 46.558,5.383 46.175,5.457 C45.830,5.531 45.447,5.715 45.102,6.010 C44.413,6.562 44.069,7.447 44.069,8.663 C44.069,9.400 44.222,10.100 44.566,10.726 C44.873,11.353 45.332,11.832 45.945,12.200 C46.558,12.532 47.247,12.716 48.013,12.716 C48.472,12.716 48.817,12.679 48.970,12.605 C49.123,12.532 49.200,12.384 49.200,12.200 L49.200,11.169 C49.200,10.542 49.200,10.100 49.200,9.916 C49.200,9.695 49.162,9.584 49.085,9.473 C49.008,9.400 48.894,9.326 48.702,9.289 C48.625,9.252 48.472,9.252 48.243,9.252 C48.128,9.252 48.089,9.215 48.089,9.179 C48.089,9.105 48.166,9.068 48.319,9.068 C48.549,9.068 48.855,9.068 49.238,9.068 C49.621,9.068 49.889,9.068 49.966,9.068 C50.081,9.068 50.310,9.068 50.617,9.068 C50.961,9.068 51.153,9.068 51.306,9.068 C51.459,9.068 51.536,9.105 51.536,9.179 C51.536,9.215 51.459,9.252 51.382,9.252 C51.306,9.252 51.191,9.252 51.076,9.289 C50.923,9.289 50.808,9.363 50.732,9.473 C50.693,9.547 50.655,9.695 50.655,9.916 C50.617,10.100 50.617,10.542 50.617,11.205 L50.617,12.384 C50.617,12.532 50.617,12.605 50.617,12.679 C50.578,12.716 50.540,12.753 50.463,12.790 C49.813,13.084 48.932,13.269 47.745,13.269 C47.017,13.269 46.366,13.195 45.754,13.011 C45.102,12.864 44.566,12.605 44.069,12.237 C43.571,11.905 43.188,11.463 42.920,10.910 C42.652,10.358 42.498,9.731 42.498,9.031 C42.498,8.589 42.575,8.221 42.652,7.852 C42.767,7.483 42.920,7.152 43.112,6.857 ZM53.527,5.788 C53.488,5.420 53.374,5.236 53.144,5.162 C53.029,5.162 52.876,5.125 52.723,5.125 C52.608,5.125 52.531,5.088 52.531,5.015 C52.531,4.978 52.646,4.941 52.799,4.941 C52.953,4.941 53.221,4.941 53.604,4.941 C53.948,4.978 54.178,4.978 54.293,4.978 C54.369,4.978 54.599,4.978 54.905,4.941 C55.250,4.941 55.518,4.941 55.671,4.941 C55.824,4.941 55.901,4.978 55.901,5.015 C55.901,5.088 55.824,5.125 55.710,5.125 C55.633,5.125 55.518,5.125 55.403,5.162 C55.250,5.199 55.135,5.236 55.059,5.346 C55.020,5.457 54.982,5.567 54.982,5.788 C54.944,6.010 54.944,6.783 54.944,8.073 L54.944,9.989 C54.944,11.242 54.944,12.016 54.982,12.348 C55.020,12.495 55.059,12.642 55.097,12.716 C55.173,12.790 55.288,12.864 55.441,12.864 C55.633,12.900 55.824,12.900 56.016,12.900 C56.131,12.900 56.208,12.937 56.208,13.011 C56.208,13.084 56.131,13.121 55.978,13.121 C55.710,13.121 55.365,13.084 54.944,13.084 C54.523,13.084 54.293,13.084 54.216,13.084 C54.140,13.084 53.948,13.084 53.565,13.084 C53.221,13.084 52.953,13.121 52.799,13.121 C52.646,13.121 52.570,13.084 52.570,13.011 C52.570,12.937 52.608,12.900 52.723,12.900 C52.876,12.900 53.029,12.900 53.144,12.864 C53.335,12.827 53.450,12.642 53.488,12.348 C53.527,12.016 53.527,11.242 53.527,9.989 L53.527,8.073 C53.527,6.783 53.527,6.010 53.527,5.788 ZM58.160,6.194 C58.543,5.752 59.003,5.420 59.615,5.162 C60.190,4.904 60.879,4.794 61.683,4.794 L61.721,4.794 C62.449,4.794 63.062,4.867 63.636,5.051 C64.210,5.236 64.670,5.531 65.091,5.862 C65.474,6.231 65.780,6.673 66.010,7.152 C66.202,7.668 66.317,8.221 66.317,8.810 C66.317,9.437 66.202,10.026 66.010,10.542 C65.780,11.095 65.474,11.574 65.053,11.979 C64.632,12.384 64.134,12.716 63.560,12.937 C62.985,13.158 62.334,13.269 61.683,13.269 C61.645,13.269 61.645,13.269 61.645,13.269 C60.841,13.269 60.152,13.121 59.577,12.900 C59.003,12.642 58.505,12.311 58.160,11.905 C57.777,11.463 57.509,11.021 57.318,10.505 C57.127,10.026 57.050,9.510 57.050,9.031 C57.050,8.515 57.127,8.036 57.318,7.557 C57.509,7.041 57.777,6.599 58.160,6.194 ZM59.041,10.726 C59.309,11.353 59.730,11.832 60.266,12.200 C60.687,12.458 61.147,12.642 61.683,12.716 C61.798,12.716 61.951,12.716 62.104,12.716 C62.487,12.716 62.832,12.642 63.253,12.458 C63.636,12.311 63.981,11.942 64.287,11.426 C64.594,10.910 64.747,10.173 64.747,9.215 C64.747,8.626 64.632,8.110 64.479,7.594 C64.325,7.115 64.057,6.710 63.789,6.378 C63.483,6.010 63.100,5.752 62.717,5.567 C62.372,5.420 62.028,5.346 61.683,5.309 C61.607,5.309 61.492,5.309 61.415,5.309 C60.917,5.309 60.458,5.420 60.037,5.604 C59.615,5.825 59.271,6.157 59.003,6.673 C58.735,7.189 58.620,7.852 58.620,8.699 C58.620,9.437 58.773,10.137 59.041,10.726 ZM67.848,12.864 C68.001,12.827 68.078,12.716 68.116,12.532 C68.193,12.348 68.193,12.016 68.193,11.537 L68.308,5.125 C68.308,4.867 68.346,4.757 68.461,4.757 C68.499,4.757 68.537,4.757 68.576,4.794 C68.614,4.830 68.652,4.867 68.729,4.904 C68.767,4.978 68.806,5.051 68.882,5.088 C68.920,5.125 69.074,5.273 69.342,5.567 C69.609,5.825 69.878,6.120 70.184,6.415 C70.490,6.746 70.873,7.078 71.294,7.520 C71.754,7.926 72.099,8.294 72.405,8.552 C72.711,8.847 72.979,9.105 73.171,9.326 C73.400,9.547 73.707,9.842 74.128,10.284 C74.549,10.689 74.817,10.947 74.894,11.021 L74.932,11.021 L74.817,6.157 C74.817,5.862 74.779,5.604 74.741,5.494 C74.664,5.346 74.588,5.236 74.435,5.199 C74.319,5.162 74.128,5.125 73.822,5.125 C73.707,5.125 73.669,5.088 73.669,5.051 C73.669,4.978 73.745,4.941 73.937,4.941 C74.166,4.941 74.473,4.941 74.779,4.941 C75.086,4.978 75.277,4.978 75.315,4.978 C75.315,4.978 75.468,4.978 75.736,4.941 C75.966,4.941 76.234,4.941 76.426,4.941 C76.617,4.941 76.694,4.978 76.694,5.051 C76.694,5.088 76.617,5.125 76.502,5.125 C76.349,5.125 76.234,5.125 76.158,5.162 C76.004,5.199 75.890,5.309 75.813,5.420 C75.775,5.567 75.736,5.788 75.736,6.083 L75.622,12.900 C75.622,13.121 75.545,13.232 75.468,13.232 C75.354,13.232 75.239,13.158 75.086,13.011 C74.856,12.790 74.626,12.569 74.358,12.348 C74.128,12.090 73.822,11.832 73.477,11.500 C73.133,11.169 72.826,10.837 72.520,10.542 C72.175,10.247 71.946,10.026 71.716,9.842 C71.486,9.584 71.218,9.326 70.988,9.068 C70.720,8.847 70.452,8.552 70.146,8.258 C69.840,7.926 69.571,7.668 69.380,7.447 C69.150,7.226 69.074,7.115 69.035,7.115 L68.997,7.115 L69.112,11.647 C69.150,12.053 69.188,12.348 69.227,12.532 C69.303,12.679 69.380,12.790 69.533,12.827 C69.686,12.900 69.878,12.900 70.107,12.900 C70.223,12.900 70.299,12.937 70.299,13.011 C70.299,13.084 70.223,13.121 70.031,13.121 C69.763,13.121 69.457,13.084 69.150,13.084 C68.844,13.084 68.652,13.084 68.652,13.084 C68.652,13.084 68.499,13.084 68.193,13.084 C67.925,13.084 67.657,13.121 67.427,13.121 C67.236,13.121 67.159,13.084 67.159,13.011 C67.159,12.937 67.236,12.900 67.350,12.900 C67.542,12.900 67.733,12.900 67.848,12.864 ZM78.953,5.788 C78.953,5.604 78.915,5.457 78.838,5.346 C78.762,5.273 78.647,5.199 78.455,5.162 C78.379,5.125 78.226,5.125 78.034,5.125 C77.881,5.125 77.842,5.088 77.842,5.051 C77.842,4.978 77.919,4.941 78.072,4.941 C78.302,4.941 78.608,4.941 78.991,4.941 C79.374,4.978 79.642,4.978 79.719,4.978 C81.442,4.978 82.399,4.978 82.552,4.941 C82.782,4.941 82.974,4.904 83.050,4.904 L83.089,4.867 C83.127,4.867 83.127,4.867 83.165,4.867 L83.203,4.830 C83.242,4.830 83.242,4.867 83.242,4.941 C83.242,4.941 83.242,5.015 83.242,5.162 C83.203,5.309 83.203,5.457 83.203,5.641 C83.165,5.678 83.165,5.788 83.165,6.010 C83.165,6.194 83.127,6.341 83.127,6.378 C83.127,6.452 83.089,6.489 83.012,6.489 C82.935,6.489 82.935,6.415 82.935,6.341 C82.935,6.194 82.897,6.047 82.859,5.936 C82.821,5.825 82.744,5.752 82.629,5.678 C82.514,5.641 82.361,5.567 82.093,5.567 C81.825,5.531 81.289,5.494 80.485,5.494 C80.446,5.494 80.408,5.531 80.408,5.604 L80.408,8.368 C80.408,8.442 80.446,8.478 80.485,8.478 C81.519,8.478 82.131,8.478 82.284,8.442 C82.591,8.442 82.744,8.368 82.821,8.294 C82.935,8.184 82.974,8.147 83.012,8.147 C83.089,8.147 83.089,8.184 83.089,8.221 C83.089,8.221 83.089,8.331 83.050,8.478 C83.050,8.589 83.012,8.810 83.012,9.031 C82.974,9.326 82.974,9.547 82.974,9.731 C82.974,9.879 82.935,9.953 82.859,9.953 C82.782,9.953 82.744,9.916 82.744,9.842 C82.744,9.842 82.744,9.805 82.744,9.768 C82.744,9.731 82.744,9.658 82.744,9.621 C82.744,9.584 82.705,9.510 82.705,9.473 C82.667,9.215 82.438,9.068 82.093,9.031 C81.863,9.031 81.327,9.031 80.485,9.031 C80.408,9.031 80.408,9.031 80.408,9.105 L80.408,9.989 L80.408,11.169 L80.408,11.647 C80.408,11.905 80.446,12.090 80.523,12.237 C80.599,12.348 80.715,12.421 80.906,12.495 C81.059,12.532 81.366,12.569 81.748,12.569 C82.284,12.569 82.629,12.532 82.821,12.421 C83.089,12.311 83.242,12.053 83.280,11.610 C83.280,11.537 83.319,11.463 83.357,11.463 C83.357,11.463 83.395,11.537 83.395,11.647 C83.395,11.795 83.395,12.016 83.357,12.274 C83.357,12.569 83.319,12.753 83.319,12.864 C83.280,12.974 83.280,13.084 83.242,13.084 C83.165,13.121 83.012,13.158 82.782,13.158 C82.131,13.158 81.480,13.121 80.868,13.121 C80.255,13.084 79.834,13.084 79.642,13.084 C79.527,13.084 79.298,13.084 78.991,13.084 C78.647,13.084 78.379,13.121 78.226,13.121 C78.072,13.121 77.995,13.084 77.995,13.011 C77.995,12.937 78.072,12.900 78.187,12.900 C78.302,12.900 78.455,12.900 78.570,12.864 C78.685,12.864 78.762,12.790 78.800,12.679 C78.838,12.605 78.876,12.458 78.915,12.274 C78.953,11.979 78.991,11.205 78.991,9.989 L78.991,8.073 C78.991,6.783 78.953,6.010 78.953,5.788 ZM87.837,7.815 C87.990,7.815 88.181,7.815 88.411,7.815 C88.679,7.815 88.832,7.815 88.871,7.815 C88.947,7.815 89.100,7.815 89.368,7.815 C89.637,7.815 89.866,7.815 90.019,7.815 C90.326,7.815 90.594,7.815 90.824,7.815 C90.900,7.815 90.938,7.815 91.015,7.852 C91.168,7.852 91.360,7.889 91.551,7.926 C91.819,7.963 92.087,8.036 92.317,8.147 C92.547,8.258 92.777,8.405 92.968,8.626 C93.428,9.068 93.657,9.658 93.657,10.394 C93.657,10.653 93.619,10.910 93.542,11.169 C93.466,11.426 93.389,11.647 93.274,11.832 C93.159,12.016 93.006,12.200 92.853,12.348 C92.738,12.458 92.547,12.605 92.355,12.716 C92.125,12.827 91.858,12.937 91.513,13.048 C91.360,13.084 91.206,13.121 91.015,13.121 C90.824,13.158 90.632,13.158 90.402,13.158 C90.211,13.158 89.943,13.158 89.598,13.121 C89.215,13.084 88.986,13.084 88.832,13.084 C88.794,13.084 88.679,13.084 88.450,13.084 C88.220,13.084 88.028,13.084 87.913,13.084 C87.837,13.084 87.760,13.084 87.760,13.011 C87.760,12.974 87.798,12.974 87.913,12.974 C87.990,12.974 88.067,12.974 88.143,12.937 C88.220,12.937 88.258,12.900 88.296,12.827 C88.335,12.753 88.373,12.679 88.373,12.569 C88.411,12.348 88.411,11.868 88.411,11.058 L88.411,9.842 C88.411,8.994 88.411,8.515 88.411,8.368 C88.373,8.221 88.373,8.147 88.335,8.073 C88.296,8.036 88.181,7.963 88.067,7.963 C88.028,7.926 87.913,7.926 87.798,7.926 C87.722,7.926 87.684,7.926 87.684,7.889 C87.684,7.815 87.722,7.815 87.837,7.815 ZM89.330,9.731 L89.330,10.616 C89.330,11.353 89.330,11.832 89.330,12.016 C89.368,12.311 89.368,12.495 89.407,12.569 C89.483,12.642 89.598,12.679 89.751,12.753 C89.905,12.790 90.134,12.827 90.364,12.827 C90.594,12.827 90.824,12.827 91.015,12.790 C91.130,12.753 91.245,12.753 91.360,12.716 C91.589,12.642 91.858,12.495 92.087,12.348 C92.470,11.979 92.700,11.426 92.700,10.579 C92.700,10.321 92.662,10.063 92.585,9.842 C92.508,9.584 92.432,9.400 92.317,9.252 C92.202,9.068 92.087,8.958 91.972,8.847 C91.704,8.589 91.398,8.405 91.015,8.294 C90.670,8.184 90.288,8.147 89.905,8.147 C89.637,8.147 89.483,8.147 89.407,8.184 C89.368,8.221 89.330,8.258 89.330,8.331 C89.330,8.478 89.330,8.958 89.330,9.731 ZM94.614,7.815 C94.768,7.815 94.959,7.815 95.189,7.815 C95.457,7.815 95.610,7.815 95.648,7.815 C96.797,7.815 97.410,7.815 97.487,7.815 C97.640,7.815 97.754,7.778 97.793,7.778 C97.831,7.778 97.831,7.778 97.869,7.778 C97.869,7.778 97.869,7.778 97.869,7.742 C97.908,7.742 97.908,7.742 97.946,7.742 C97.946,7.742 97.984,7.778 97.984,7.815 C97.984,7.815 97.946,7.889 97.946,7.963 C97.946,8.036 97.908,8.147 97.908,8.258 C97.908,8.294 97.908,8.368 97.908,8.515 C97.869,8.626 97.869,8.699 97.869,8.736 C97.869,8.773 97.831,8.810 97.793,8.810 C97.754,8.810 97.754,8.773 97.754,8.699 C97.754,8.626 97.716,8.515 97.678,8.478 C97.678,8.405 97.601,8.331 97.563,8.294 C97.487,8.258 97.371,8.221 97.218,8.221 C97.027,8.184 96.682,8.184 96.146,8.184 C96.108,8.184 96.108,8.221 96.108,8.258 L96.108,10.026 C96.108,10.063 96.108,10.100 96.146,10.100 C96.835,10.100 97.218,10.100 97.333,10.100 C97.525,10.063 97.640,10.026 97.678,9.989 C97.754,9.916 97.793,9.879 97.793,9.879 C97.831,9.879 97.869,9.916 97.869,9.953 C97.869,9.953 97.831,9.989 97.831,10.100 C97.831,10.173 97.793,10.321 97.793,10.468 C97.793,10.653 97.754,10.800 97.754,10.910 C97.754,11.021 97.754,11.058 97.716,11.058 C97.640,11.058 97.640,11.021 97.640,10.984 C97.640,10.984 97.640,10.947 97.640,10.910 C97.640,10.910 97.640,10.874 97.640,10.837 C97.601,10.800 97.601,10.763 97.601,10.726 C97.563,10.579 97.410,10.505 97.180,10.468 C97.065,10.468 96.721,10.432 96.146,10.432 C96.108,10.432 96.108,10.468 96.108,10.505 L96.108,11.058 L96.108,11.832 L96.108,12.163 C96.108,12.311 96.146,12.458 96.185,12.532 C96.223,12.605 96.299,12.679 96.414,12.679 C96.529,12.716 96.721,12.753 96.989,12.753 C97.333,12.753 97.563,12.716 97.678,12.642 C97.869,12.569 97.946,12.421 98.023,12.126 C98.023,12.053 98.061,12.016 98.099,12.016 C98.137,12.016 98.137,12.090 98.137,12.163 C98.137,12.237 98.137,12.384 98.099,12.569 C98.099,12.753 98.061,12.864 98.061,12.937 C98.023,13.011 97.984,13.084 97.946,13.084 C97.908,13.121 97.793,13.121 97.640,13.121 C97.218,13.121 96.797,13.121 96.414,13.084 C95.993,13.084 95.725,13.084 95.610,13.084 C95.534,13.084 95.419,13.084 95.189,13.084 C94.959,13.084 94.806,13.084 94.691,13.084 C94.614,13.084 94.538,13.084 94.538,13.011 C94.538,12.974 94.576,12.974 94.691,12.974 C94.768,12.974 94.844,12.974 94.921,12.937 C94.998,12.937 95.036,12.900 95.074,12.827 C95.112,12.753 95.112,12.679 95.151,12.569 C95.189,12.348 95.189,11.868 95.189,11.058 L95.189,9.842 C95.189,8.994 95.189,8.515 95.189,8.368 C95.151,8.221 95.151,8.147 95.112,8.073 C95.036,8.036 94.959,7.963 94.844,7.963 C94.806,7.926 94.691,7.926 94.576,7.926 C94.500,7.926 94.423,7.926 94.423,7.889 C94.423,7.815 94.500,7.815 94.614,7.815 ZM99.248,7.815 C99.401,7.815 99.593,7.815 99.822,7.815 C100.052,7.815 100.205,7.815 100.282,7.815 C100.320,7.815 100.473,7.815 100.741,7.815 C100.971,7.815 101.163,7.815 101.277,7.815 C101.354,7.815 101.430,7.815 101.430,7.889 C101.430,7.926 101.392,7.926 101.277,7.926 C101.201,7.926 101.086,7.926 101.009,7.963 C100.894,7.963 100.856,7.999 100.818,8.073 C100.780,8.147 100.741,8.221 100.741,8.368 C100.741,8.515 100.703,8.994 100.703,9.842 L100.703,11.058 C100.703,11.610 100.741,11.979 100.741,12.163 C100.741,12.384 100.818,12.532 100.856,12.569 C100.933,12.642 101.048,12.679 101.163,12.679 C101.277,12.716 101.469,12.716 101.775,12.716 C102.005,12.716 102.158,12.716 102.311,12.679 C102.426,12.679 102.541,12.605 102.618,12.532 C102.656,12.495 102.694,12.421 102.733,12.348 C102.771,12.274 102.809,12.163 102.809,12.126 C102.809,12.053 102.847,12.016 102.886,12.016 C102.924,12.016 102.962,12.053 102.962,12.126 C102.962,12.200 102.924,12.311 102.924,12.495 C102.886,12.716 102.847,12.827 102.847,12.937 C102.809,13.011 102.771,13.048 102.733,13.084 C102.694,13.121 102.541,13.121 102.388,13.121 C102.120,13.121 101.890,13.121 101.699,13.121 C101.507,13.121 101.239,13.084 100.894,13.084 C100.588,13.084 100.358,13.084 100.244,13.084 C100.167,13.084 100.014,13.084 99.822,13.084 C99.593,13.084 99.439,13.084 99.324,13.084 C99.210,13.084 99.171,13.084 99.171,13.011 C99.171,12.974 99.210,12.974 99.286,12.974 C99.363,12.974 99.478,12.974 99.554,12.937 C99.631,12.937 99.669,12.900 99.707,12.827 C99.707,12.753 99.746,12.679 99.746,12.569 C99.784,12.348 99.822,11.868 99.822,11.058 L99.822,9.842 C99.822,8.994 99.784,8.515 99.784,8.368 C99.784,8.221 99.746,8.147 99.707,8.073 C99.669,8.036 99.593,7.963 99.478,7.963 C99.401,7.926 99.324,7.926 99.210,7.926 C99.133,7.926 99.095,7.926 99.095,7.889 C99.095,7.815 99.171,7.815 99.248,7.815 ZM106.064,4.941 C106.294,4.941 106.562,4.941 106.945,4.941 C107.327,4.978 107.596,4.978 107.710,4.978 C107.787,4.978 107.979,4.978 108.285,4.941 C108.630,4.941 108.897,4.941 109.089,4.941 C109.280,4.941 109.357,4.978 109.357,5.051 C109.357,5.088 109.319,5.125 109.204,5.125 C108.974,5.125 108.821,5.162 108.744,5.199 C108.668,5.273 108.630,5.346 108.630,5.420 C108.630,5.567 108.706,5.825 108.897,6.268 L110.850,11.169 L110.889,11.169 C110.965,10.947 111.119,10.616 111.310,10.137 C111.501,9.658 111.769,9.105 111.999,8.515 C112.267,7.889 112.497,7.336 112.727,6.820 C112.918,6.304 113.071,5.973 113.109,5.788 C113.186,5.604 113.225,5.494 113.225,5.383 C113.225,5.273 113.186,5.199 113.071,5.199 C112.957,5.162 112.803,5.125 112.612,5.125 C112.497,5.125 112.420,5.088 112.420,5.051 C112.420,4.978 112.536,4.941 112.765,4.941 C112.995,4.941 113.225,4.941 113.493,4.941 C113.799,4.978 113.914,4.978 113.952,4.978 C113.990,4.978 114.144,4.978 114.412,4.941 C114.680,4.941 114.871,4.941 115.024,4.941 C115.178,4.941 115.254,4.978 115.254,5.051 C115.254,5.088 115.178,5.125 115.063,5.125 C114.833,5.125 114.642,5.162 114.526,5.273 C114.335,5.383 114.105,5.715 113.876,6.231 C113.723,6.562 113.607,6.820 113.531,7.041 C113.416,7.226 113.263,7.557 113.033,8.036 C112.842,8.515 112.650,8.884 112.536,9.179 C112.114,10.026 111.846,10.689 111.655,11.095 C111.463,11.500 111.310,11.795 111.233,12.016 C111.157,12.200 111.080,12.348 111.004,12.458 C110.850,12.827 110.736,13.048 110.697,13.121 C110.621,13.232 110.582,13.269 110.506,13.269 C110.429,13.269 110.353,13.232 110.314,13.121 C110.276,13.048 110.161,12.864 110.047,12.605 L107.213,6.010 C107.098,5.715 106.983,5.531 106.868,5.420 C106.715,5.309 106.562,5.236 106.332,5.162 C106.217,5.162 106.102,5.125 105.911,5.125 C105.834,5.125 105.758,5.088 105.758,5.051 C105.758,4.978 105.872,4.941 106.064,4.941 ZM116.403,5.788 C116.403,5.604 116.365,5.457 116.288,5.346 C116.211,5.273 116.096,5.199 115.905,5.162 C115.829,5.125 115.675,5.125 115.484,5.125 C115.369,5.125 115.292,5.088 115.292,5.051 C115.292,4.978 115.369,4.941 115.522,4.941 C115.752,4.941 116.058,4.941 116.441,4.941 C116.863,4.978 117.092,4.978 117.169,4.978 C118.930,4.978 119.849,4.978 120.002,4.941 C120.271,4.941 120.423,4.904 120.500,4.904 C120.500,4.867 120.539,4.867 120.539,4.867 C120.577,4.867 120.577,4.867 120.615,4.867 L120.653,4.830 C120.730,4.830 120.730,4.867 120.730,4.941 C120.730,4.941 120.730,5.015 120.692,5.162 C120.692,5.309 120.653,5.457 120.653,5.641 C120.653,5.678 120.653,5.788 120.615,6.010 C120.615,6.194 120.615,6.341 120.577,6.378 C120.577,6.452 120.539,6.489 120.500,6.489 C120.423,6.489 120.385,6.415 120.385,6.341 C120.385,6.194 120.347,6.047 120.309,5.936 C120.271,5.825 120.194,5.752 120.079,5.678 C120.002,5.641 119.811,5.567 119.543,5.567 C119.275,5.531 118.738,5.494 117.935,5.494 C117.896,5.494 117.858,5.531 117.858,5.604 L117.858,8.368 C117.858,8.442 117.896,8.478 117.935,8.478 C118.969,8.478 119.581,8.478 119.773,8.442 C120.041,8.442 120.232,8.368 120.309,8.294 C120.385,8.184 120.462,8.147 120.500,8.147 C120.539,8.147 120.577,8.184 120.577,8.221 C120.577,8.221 120.539,8.331 120.539,8.478 C120.500,8.589 120.500,8.810 120.462,9.031 C120.423,9.326 120.423,9.547 120.423,9.731 C120.423,9.879 120.385,9.953 120.309,9.953 C120.271,9.953 120.232,9.916 120.232,9.842 C120.232,9.842 120.232,9.805 120.194,9.768 C120.194,9.731 120.194,9.658 120.194,9.621 C120.194,9.584 120.194,9.510 120.155,9.473 C120.117,9.215 119.888,9.068 119.543,9.031 C119.313,9.031 118.777,9.031 117.935,9.031 C117.896,9.031 117.858,9.031 117.858,9.105 L117.858,9.989 L117.858,11.169 L117.858,11.647 C117.858,11.905 117.896,12.090 117.973,12.237 C118.049,12.348 118.164,12.421 118.356,12.495 C118.547,12.532 118.815,12.569 119.236,12.569 C119.734,12.569 120.079,12.532 120.271,12.421 C120.539,12.311 120.730,12.053 120.806,11.610 C120.806,11.537 120.845,11.463 120.921,11.463 C120.998,11.463 120.998,11.537 120.998,11.647 C120.998,11.795 120.998,12.016 120.960,12.274 C120.921,12.569 120.883,12.753 120.845,12.864 C120.845,12.974 120.768,13.084 120.692,13.084 C120.653,13.121 120.500,13.158 120.271,13.158 C119.581,13.158 118.969,13.121 118.317,13.121 C117.705,13.084 117.284,13.084 117.130,13.084 C117.016,13.084 116.786,13.084 116.441,13.084 C116.096,13.084 115.867,13.121 115.675,13.121 C115.522,13.121 115.446,13.084 115.446,13.011 C115.446,12.937 115.522,12.900 115.637,12.900 C115.790,12.900 115.905,12.900 116.058,12.864 C116.135,12.864 116.211,12.790 116.250,12.679 C116.326,12.605 116.365,12.458 116.365,12.274 C116.403,11.979 116.441,11.205 116.441,9.989 L116.441,8.073 C116.441,6.783 116.441,6.010 116.403,5.788 ZM122.951,12.864 C123.066,12.827 123.181,12.716 123.219,12.532 C123.257,12.348 123.296,12.016 123.296,11.537 L123.372,5.125 C123.372,4.867 123.448,4.757 123.525,4.757 C123.564,4.757 123.602,4.757 123.640,4.794 C123.678,4.830 123.717,4.867 123.793,4.904 C123.832,4.978 123.908,5.051 123.946,5.088 C123.985,5.125 124.138,5.273 124.406,5.567 C124.674,5.825 124.980,6.120 125.287,6.415 C125.593,6.746 125.938,7.078 126.397,7.520 C126.818,7.926 127.163,8.294 127.469,8.552 C127.776,8.847 128.044,9.105 128.235,9.326 C128.465,9.547 128.772,9.842 129.193,10.284 C129.614,10.689 129.882,10.947 129.958,11.021 L130.035,11.021 L129.920,6.157 C129.882,5.862 129.882,5.604 129.805,5.494 C129.767,5.346 129.652,5.236 129.499,5.199 C129.422,5.162 129.193,5.125 128.925,5.125 C128.810,5.125 128.733,5.088 128.733,5.051 C128.733,4.978 128.848,4.941 129.039,4.941 C129.269,4.941 129.537,4.941 129.844,4.941 C130.188,4.978 130.341,4.978 130.418,4.978 C130.418,4.978 130.533,4.978 130.801,4.941 C131.069,4.941 131.298,4.941 131.528,4.941 C131.681,4.941 131.758,4.978 131.758,5.051 C131.758,5.088 131.720,5.125 131.567,5.125 C131.452,5.125 131.337,5.125 131.222,5.162 C131.069,5.199 130.954,5.309 130.916,5.420 C130.839,5.567 130.801,5.788 130.801,6.083 L130.686,12.900 C130.686,13.121 130.648,13.232 130.533,13.232 C130.456,13.232 130.303,13.158 130.150,13.011 C129.920,12.790 129.690,12.569 129.461,12.348 C129.193,12.090 128.925,11.832 128.580,11.500 C128.235,11.169 127.891,10.837 127.584,10.542 C127.278,10.247 127.010,9.989 126.818,9.805 C126.550,9.584 126.282,9.326 126.052,9.068 C125.785,8.847 125.516,8.552 125.210,8.258 C124.904,7.926 124.674,7.668 124.444,7.447 C124.253,7.226 124.138,7.115 124.100,7.115 L124.061,7.115 L124.215,11.647 C124.215,12.053 124.253,12.348 124.329,12.532 C124.368,12.679 124.483,12.790 124.597,12.827 C124.751,12.900 124.942,12.900 125.172,12.900 C125.325,12.900 125.363,12.937 125.363,13.011 C125.363,13.084 125.287,13.121 125.133,13.121 C124.827,13.121 124.521,13.084 124.215,13.084 C123.908,13.084 123.755,13.084 123.717,13.084 C123.717,13.084 123.564,13.084 123.296,13.084 C122.989,13.084 122.721,13.121 122.491,13.121 C122.338,13.121 122.223,13.084 122.223,13.011 C122.223,12.937 122.300,12.900 122.415,12.900 C122.645,12.900 122.798,12.900 122.951,12.864 ZM134.247,5.788 C134.247,5.604 134.209,5.457 134.132,5.346 C134.056,5.273 133.941,5.199 133.749,5.162 C133.673,5.125 133.519,5.125 133.328,5.125 C133.175,5.125 133.137,5.088 133.137,5.051 C133.137,4.978 133.213,4.941 133.366,4.941 C133.596,4.941 133.902,4.941 134.285,4.941 C134.707,4.978 134.936,4.978 135.013,4.978 C136.774,4.978 137.693,4.978 137.847,4.941 C138.115,4.941 138.268,4.904 138.344,4.904 C138.344,4.867 138.383,4.867 138.421,4.867 C138.421,4.867 138.421,4.867 138.459,4.867 C138.459,4.867 138.497,4.830 138.536,4.830 C138.574,4.830 138.574,4.867 138.574,4.941 C138.574,4.941 138.574,5.015 138.536,5.162 C138.536,5.309 138.497,5.457 138.497,5.641 C138.497,5.678 138.497,5.788 138.459,6.010 C138.459,6.194 138.459,6.341 138.421,6.378 C138.421,6.452 138.383,6.489 138.344,6.489 C138.268,6.489 138.229,6.415 138.229,6.341 C138.229,6.194 138.191,6.047 138.153,5.936 C138.115,5.825 138.038,5.752 137.923,5.678 C137.847,5.641 137.655,5.567 137.387,5.567 C137.119,5.531 136.583,5.494 135.779,5.494 C135.741,5.494 135.702,5.531 135.702,5.604 L135.702,8.368 C135.702,8.442 135.741,8.478 135.779,8.478 C136.813,8.478 137.425,8.478 137.617,8.442 C137.885,8.442 138.076,8.368 138.153,8.294 C138.229,8.184 138.306,8.147 138.344,8.147 C138.383,8.147 138.421,8.184 138.421,8.221 C138.421,8.221 138.383,8.331 138.383,8.478 C138.344,8.589 138.344,8.810 138.306,9.031 C138.268,9.326 138.268,9.547 138.268,9.731 C138.268,9.879 138.229,9.953 138.153,9.953 C138.115,9.953 138.076,9.916 138.076,9.842 C138.076,9.842 138.076,9.805 138.038,9.768 C138.038,9.731 138.038,9.658 138.038,9.621 C138.038,9.584 138.038,9.510 138.000,9.473 C137.961,9.215 137.732,9.068 137.387,9.031 C137.157,9.031 136.621,9.031 135.779,9.031 C135.741,9.031 135.702,9.031 135.702,9.105 L135.702,9.989 L135.702,11.169 L135.702,11.647 C135.702,11.905 135.741,12.090 135.817,12.237 C135.894,12.348 136.008,12.421 136.200,12.495 C136.391,12.532 136.660,12.569 137.081,12.569 C137.579,12.569 137.923,12.532 138.153,12.421 C138.383,12.311 138.574,12.053 138.651,11.610 C138.651,11.537 138.689,11.463 138.766,11.463 C138.842,11.463 138.842,11.537 138.842,11.647 C138.842,11.795 138.842,12.016 138.804,12.274 C138.766,12.569 138.727,12.753 138.727,12.864 C138.689,12.974 138.612,13.084 138.536,13.084 C138.459,13.121 138.344,13.158 138.115,13.158 C137.425,13.158 136.774,13.121 136.162,13.121 C135.549,13.084 135.128,13.084 134.975,13.084 C134.860,13.084 134.630,13.084 134.285,13.084 C133.941,13.084 133.711,13.121 133.519,13.121 C133.366,13.121 133.290,13.084 133.290,13.011 C133.290,12.937 133.366,12.900 133.481,12.900 C133.634,12.900 133.749,12.900 133.902,12.864 C133.979,12.864 134.056,12.790 134.132,12.679 C134.171,12.605 134.209,12.458 134.209,12.274 C134.247,11.979 134.285,11.205 134.285,9.989 L134.285,8.073 C134.285,6.783 134.285,6.010 134.247,5.788 ZM139.953,4.978 C139.991,4.867 140.029,4.794 140.067,4.794 C140.106,4.794 140.144,4.794 140.259,4.830 C140.374,4.867 140.450,4.904 140.565,4.904 C140.910,4.941 141.293,4.978 141.714,4.978 L146.194,4.978 C146.501,4.978 146.730,4.941 146.960,4.904 C147.190,4.867 147.305,4.867 147.266,4.867 C147.343,4.867 147.381,4.941 147.381,5.088 C147.381,5.162 147.381,5.346 147.343,5.678 C147.343,6.047 147.343,6.231 147.343,6.341 C147.343,6.452 147.305,6.525 147.228,6.525 C147.152,6.525 147.113,6.452 147.113,6.304 L147.113,6.194 C147.075,5.788 146.615,5.604 145.773,5.567 L144.318,5.531 L144.318,9.989 C144.318,11.205 144.356,11.979 144.395,12.274 C144.433,12.458 144.471,12.605 144.509,12.716 C144.586,12.790 144.701,12.864 144.854,12.864 C145.046,12.900 145.237,12.900 145.428,12.900 C145.543,12.900 145.582,12.937 145.582,13.011 C145.582,13.084 145.505,13.121 145.390,13.121 C145.084,13.121 144.739,13.084 144.318,13.084 C143.897,13.084 143.667,13.084 143.590,13.084 C143.514,13.084 143.322,13.084 142.978,13.084 C142.595,13.084 142.327,13.121 142.173,13.121 C142.020,13.121 141.944,13.084 141.944,13.011 C141.944,12.937 142.020,12.900 142.135,12.900 C142.250,12.900 142.403,12.900 142.518,12.864 C142.710,12.827 142.824,12.642 142.863,12.274 C142.901,11.979 142.901,11.205 142.901,9.989 L142.901,5.531 L141.216,5.567 C140.872,5.604 140.642,5.604 140.489,5.678 C140.335,5.715 140.221,5.788 140.144,5.899 C140.029,6.047 139.953,6.157 139.953,6.268 C139.914,6.378 139.876,6.415 139.799,6.415 C139.761,6.415 139.723,6.341 139.723,6.231 C139.723,6.157 139.761,5.973 139.799,5.604 C139.876,5.236 139.953,5.051 139.953,4.978 ZM149.142,6.194 C149.526,5.752 150.023,5.420 150.598,5.162 C151.211,4.904 151.900,4.794 152.665,4.794 C152.704,4.794 152.704,4.794 152.742,4.794 C153.431,4.794 154.082,4.867 154.619,5.051 C155.193,5.236 155.691,5.531 156.074,5.862 C156.495,6.231 156.801,6.673 156.993,7.152 C157.222,7.668 157.299,8.221 157.299,8.810 C157.299,9.437 157.184,10.026 156.993,10.542 C156.763,11.095 156.457,11.574 156.036,11.979 C155.614,12.384 155.116,12.716 154.542,12.937 C153.968,13.158 153.355,13.269 152.665,13.269 L152.627,13.269 C151.862,13.269 151.172,13.121 150.559,12.900 C149.985,12.642 149.526,12.311 149.142,11.905 C148.760,11.463 148.492,11.021 148.300,10.505 C148.147,10.026 148.032,9.510 148.032,9.031 C148.032,8.515 148.147,8.036 148.300,7.557 C148.492,7.041 148.760,6.599 149.142,6.194 ZM150.023,10.726 C150.330,11.353 150.713,11.832 151.249,12.200 C151.670,12.458 152.129,12.642 152.665,12.716 C152.819,12.716 152.934,12.716 153.087,12.716 C153.470,12.716 153.853,12.642 154.236,12.458 C154.619,12.311 154.963,11.942 155.269,11.426 C155.576,10.910 155.729,10.173 155.729,9.215 C155.729,8.626 155.652,8.110 155.461,7.594 C155.308,7.115 155.078,6.710 154.772,6.378 C154.466,6.010 154.121,5.752 153.700,5.567 C153.393,5.420 153.049,5.346 152.665,5.309 C152.589,5.309 152.512,5.309 152.398,5.309 C151.938,5.309 151.479,5.420 151.057,5.604 C150.636,5.825 150.292,6.157 150.023,6.673 C149.756,7.189 149.602,7.852 149.602,8.699 C149.602,9.437 149.756,10.137 150.023,10.726 ZM16.493,18.073 C14.801,18.052 13.106,18.151 11.414,18.243 C10.738,18.279 10.088,18.481 9.593,19.008 C8.377,18.010 6.903,18.168 5.490,18.099 C4.488,18.050 3.482,18.070 2.478,18.052 C0.798,18.020 0.001,17.240 0.000,15.635 C-0.000,10.610 0.000,5.584 0.000,0.559 C0.000,0.386 0.000,0.212 0.000,0.003 C6.387,0.003 12.750,0.003 19.172,0.003 C19.172,0.196 19.172,0.353 19.172,0.511 C19.172,5.552 19.172,10.593 19.171,15.635 C19.171,17.271 18.192,18.094 16.493,18.073 ZM0.774,12.514 C1.028,12.571 1.242,12.619 1.456,12.667 C1.330,12.783 1.221,12.783 1.113,12.795 C1.002,12.808 0.893,12.832 0.783,12.851 C0.889,12.971 0.992,12.983 1.092,13.005 C1.209,13.032 1.324,13.068 1.562,13.133 C0.735,13.221 0.735,13.221 0.828,13.751 C1.099,13.784 1.371,13.816 1.642,13.849 C1.635,13.905 1.627,13.961 1.620,14.018 C1.478,14.000 1.335,13.963 1.195,13.971 C1.053,13.979 0.913,14.032 0.772,14.065 C0.783,14.101 0.794,14.137 0.804,14.173 C1.154,14.188 1.503,14.203 1.954,14.222 C1.954,13.290 1.954,12.389 1.954,11.498 C2.236,11.480 2.418,11.469 2.634,11.456 C2.434,11.197 2.236,11.013 2.131,10.789 C1.956,10.410 1.580,10.392 1.342,10.506 C1.094,10.624 0.855,10.942 0.798,11.210 C0.708,11.633 0.774,12.087 0.774,12.514 ZM18.370,0.752 C12.492,0.752 6.644,0.752 0.820,0.752 C0.820,4.024 0.820,7.255 0.820,10.387 C1.112,10.307 1.391,10.251 1.654,10.154 C2.200,9.954 2.139,10.456 2.284,10.671 C2.780,11.409 2.870,11.473 3.562,11.339 C3.144,10.671 2.661,10.025 2.319,9.316 C2.020,8.694 1.832,8.011 1.686,7.337 C1.595,6.914 1.920,6.566 2.272,6.536 C2.631,6.504 2.913,6.792 2.971,7.248 C3.068,8.009 3.822,8.708 4.690,8.796 C4.610,8.733 4.568,8.696 4.521,8.665 C3.560,8.021 3.217,7.065 3.603,6.106 C3.971,5.192 4.963,4.657 6.033,4.798 C7.167,4.947 7.881,5.671 8.009,6.777 C8.023,6.901 8.099,7.042 8.193,7.129 C8.658,7.566 9.034,7.548 9.509,7.039 C9.633,6.906 9.735,6.657 9.690,6.503 C9.648,6.355 9.402,6.263 9.247,6.143 C9.046,5.988 8.847,5.830 8.648,5.674 C8.839,5.487 8.997,5.204 9.228,5.130 C10.104,4.851 11.005,4.869 11.907,5.067 C13.119,5.332 14.307,5.768 15.589,5.586 C16.174,5.503 16.760,5.415 17.348,5.362 C17.480,5.350 17.624,5.474 17.763,5.535 C17.664,5.643 17.577,5.764 17.463,5.854 C17.392,5.911 17.265,5.902 17.191,5.956 C16.893,6.177 16.579,6.386 16.319,6.645 C15.891,7.070 15.505,7.556 14.823,7.570 C14.134,7.585 13.444,7.549 12.754,7.547 C12.513,7.546 12.273,7.581 12.032,7.599 C12.036,7.644 12.040,7.688 12.044,7.733 C12.864,7.733 13.684,7.733 14.504,7.733 C14.241,7.918 13.961,8.052 13.671,8.158 C13.381,8.263 13.079,8.340 12.783,8.430 C13.935,8.526 14.695,9.141 15.355,9.939 C15.662,10.309 15.991,10.668 16.353,10.986 C16.476,11.094 16.731,11.065 16.926,11.098 C16.933,10.919 17.006,10.712 16.936,10.567 C16.766,10.211 16.536,9.881 16.320,9.547 C16.207,9.373 16.054,9.222 15.952,9.043 C15.615,8.450 15.667,7.727 16.060,7.301 C16.423,6.910 17.164,6.895 17.333,7.307 C17.534,7.795 17.657,8.313 17.831,8.871 C17.626,8.770 17.476,8.696 17.312,8.615 C17.266,8.743 17.233,8.835 17.172,9.003 C16.909,8.587 16.685,8.233 16.449,7.861 C16.278,8.371 16.486,8.738 16.796,9.122 C17.134,9.540 17.464,9.990 17.663,10.477 C17.884,11.019 17.664,11.488 17.247,11.723 C16.815,11.967 16.290,11.881 15.857,11.471 C15.582,11.211 15.333,10.925 15.044,10.621 C14.953,11.108 15.089,11.445 15.468,11.700 C15.737,11.881 16.000,12.074 16.247,12.282 C16.365,12.381 16.482,12.515 16.525,12.655 C16.675,13.142 16.792,13.639 16.918,14.117 C17.444,14.080 17.899,14.049 18.370,14.016 C18.370,9.582 18.370,5.170 18.370,0.752 ZM6.079,12.836 C6.607,13.208 7.065,13.816 7.881,13.517 C7.842,13.159 7.637,12.966 7.269,12.842 C6.753,12.667 6.314,12.404 6.228,11.782 C6.163,11.310 6.085,11.302 5.739,11.426 C5.835,11.686 5.953,11.938 6.017,12.203 C6.068,12.413 5.962,12.754 6.079,12.836 ZM7.735,14.345 C8.165,14.615 8.767,14.542 8.790,14.205 C8.807,13.938 8.734,13.666 8.711,13.396 C8.682,13.039 8.653,12.682 8.643,12.324 C8.639,12.149 8.679,11.972 8.715,11.662 C8.567,11.910 8.494,12.033 8.421,12.155 C8.382,11.672 7.916,11.197 8.451,10.711 C8.646,11.014 8.824,11.292 8.999,11.563 C9.078,11.481 9.175,11.381 9.272,11.281 C9.301,11.299 9.330,11.317 9.358,11.334 C9.325,11.436 9.291,11.538 9.209,11.785 C9.449,11.599 9.579,11.498 9.740,11.373 C9.786,11.472 9.827,11.560 9.855,11.618 C10.165,11.488 10.436,11.375 10.732,11.250 C11.042,11.655 11.005,11.018 11.187,11.009 C11.614,11.586 11.538,10.766 11.808,10.836 C11.818,10.904 11.831,10.984 11.846,11.085 C12.029,11.041 12.196,11.001 12.474,10.934 C12.164,10.790 11.951,10.692 11.681,10.567 C12.197,10.433 12.635,10.608 12.941,11.132 C13.331,11.800 13.914,12.193 14.638,12.424 C15.315,12.640 15.643,13.158 15.905,13.732 C15.951,13.833 15.915,14.077 15.904,14.078 C15.490,14.107 15.640,14.539 15.369,14.679 C15.753,14.811 16.648,14.294 16.651,13.967 C16.652,13.873 16.565,13.709 16.495,13.696 C16.030,13.608 16.146,13.267 16.226,13.036 C16.349,12.682 16.205,12.505 15.926,12.340 C15.774,12.249 15.635,12.136 15.473,12.021 C15.350,12.095 15.230,12.167 15.070,12.263 C15.034,11.683 14.092,12.147 14.159,11.466 C14.053,11.476 13.948,11.485 13.842,11.495 C13.815,11.460 13.787,11.426 13.759,11.391 C14.094,11.027 14.430,10.663 14.844,10.213 C14.394,10.076 14.045,9.970 13.697,9.864 C13.669,9.827 13.641,9.790 13.613,9.753 C13.752,9.705 13.929,9.580 14.025,9.623 C14.601,9.879 15.148,10.174 15.501,10.728 C15.660,10.979 15.898,11.194 16.134,11.388 C16.448,11.647 16.822,11.718 17.178,11.472 C17.514,11.240 17.608,10.872 17.437,10.539 C17.200,10.078 16.906,9.634 16.572,9.233 C16.204,8.792 16.010,8.348 16.200,7.791 C16.230,7.706 16.247,7.615 16.301,7.408 C15.869,8.061 15.910,8.616 16.339,9.186 C16.570,9.493 16.814,9.795 17.005,10.125 C17.220,10.498 17.450,10.917 17.061,11.303 C16.809,11.553 16.272,11.345 15.835,10.870 C15.398,10.396 14.975,9.911 14.530,9.445 C14.146,9.043 13.651,8.840 13.088,8.801 C12.060,8.729 11.031,8.663 9.987,8.594 C9.930,8.739 9.859,8.921 9.821,9.020 C9.351,9.132 8.964,9.225 8.574,9.319 C8.724,9.822 8.645,9.911 8.073,9.934 C7.987,9.938 7.907,10.044 7.799,10.121 C7.707,10.085 7.574,10.032 7.399,9.963 C7.421,10.218 7.440,10.434 7.459,10.649 C7.284,10.765 7.127,10.945 7.168,11.057 C7.426,11.761 7.719,12.452 8.018,13.141 C8.323,13.847 8.324,13.874 7.735,14.345 ZM12.311,14.147 C13.052,14.147 13.645,14.081 14.213,14.166 C14.766,14.248 15.248,14.232 15.688,13.881 C15.368,13.047 15.145,12.877 13.224,12.048 C13.298,12.890 13.237,13.674 12.311,14.147 ZM12.570,13.253 C12.697,13.189 12.827,13.125 12.971,13.054 C12.957,12.765 12.942,12.481 12.927,12.196 C12.909,12.198 12.891,12.199 12.873,12.200 C12.832,12.388 12.791,12.576 12.750,12.764 C12.690,12.756 12.631,12.748 12.571,12.740 C12.591,12.457 12.601,12.172 12.633,11.890 C12.708,11.226 12.575,11.128 11.859,11.372 C11.909,11.530 11.933,11.706 12.015,11.852 C12.346,12.441 12.418,13.012 11.955,13.571 C11.946,13.583 11.949,13.607 11.938,13.615 C11.782,13.727 11.639,13.901 11.465,13.936 C11.013,14.028 11.008,14.004 10.846,14.436 C11.709,14.608 12.662,13.957 12.570,13.253 ZM11.483,13.664 C11.767,13.563 12.001,12.998 12.020,12.632 C12.038,12.267 11.758,11.887 11.601,11.494 C10.830,12.206 10.070,12.869 8.863,12.716 C8.766,13.354 9.012,13.790 9.648,13.826 C10.261,13.862 10.923,13.862 11.483,13.664 ZM15.196,7.193 C14.233,7.193 13.269,7.193 12.306,7.193 C12.307,7.230 12.308,7.266 12.309,7.303 C13.273,7.303 14.238,7.303 15.202,7.303 C15.200,7.266 15.198,7.230 15.196,7.193 ZM15.852,6.752 C14.735,6.752 13.549,6.752 12.362,6.752 C13.155,7.052 15.640,6.949 15.852,6.752 ZM16.333,6.198 C14.467,6.511 12.646,6.115 10.822,5.764 C10.813,5.816 10.805,5.868 10.796,5.920 C10.957,6.043 11.117,6.167 11.310,6.315 C11.112,6.374 10.941,6.424 10.717,6.491 C10.946,6.528 11.114,6.555 11.328,6.589 C11.174,6.855 11.051,7.067 10.937,7.264 C11.024,7.301 11.147,7.353 11.380,7.452 C11.075,7.479 10.900,7.494 10.620,7.519 C10.865,7.601 10.999,7.646 11.188,7.709 C11.033,7.905 10.905,8.068 10.753,8.260 C10.859,8.322 11.021,8.418 11.155,8.496 C11.278,8.287 11.354,8.139 11.448,8.003 C11.607,7.771 11.835,7.566 11.927,7.315 C12.028,7.038 12.009,6.721 12.042,6.417 C13.390,6.419 14.877,6.711 16.333,6.198 ZM17.314,5.584 C16.633,5.672 15.944,5.867 15.273,5.822 C14.218,5.749 13.166,5.549 12.127,5.338 C11.193,5.149 10.272,5.070 9.348,5.325 C9.177,5.372 9.045,5.554 8.895,5.673 C9.105,5.757 9.312,5.851 9.528,5.918 C9.594,5.938 9.689,5.892 9.764,5.861 C10.641,5.484 11.510,5.578 12.410,5.821 C14.055,6.264 15.692,6.062 17.314,5.584 ZM4.374,10.901 C4.405,10.881 4.436,10.860 4.467,10.839 C4.365,10.641 4.262,10.444 4.159,10.246 C4.193,10.228 4.227,10.210 4.262,10.192 C4.412,10.385 4.563,10.578 4.714,10.772 C4.749,10.744 4.785,10.716 4.820,10.688 C4.727,10.536 4.634,10.383 4.541,10.231 C4.568,10.211 4.594,10.192 4.620,10.173 C4.789,10.345 4.957,10.516 5.125,10.688 C5.155,10.658 5.184,10.628 5.214,10.597 C4.899,10.176 5.596,9.684 5.090,9.209 C5.064,9.423 5.046,9.575 5.027,9.728 C5.001,9.731 4.975,9.734 4.950,9.737 C4.901,9.608 4.851,9.479 4.791,9.322 C4.734,9.455 4.694,9.548 4.636,9.681 C4.557,9.533 4.504,9.435 4.446,9.327 C4.234,9.523 3.617,9.276 3.403,8.953 C3.039,9.600 3.529,10.068 3.823,10.587 C3.823,10.494 3.823,10.400 3.823,10.187 C4.055,10.488 4.214,10.694 4.374,10.901 ZM5.151,8.490 C5.297,8.389 5.376,8.197 5.478,8.035 C5.241,8.089 5.000,8.145 4.612,8.233 C4.865,8.360 5.089,8.533 5.151,8.490 ZM5.191,7.569 C5.108,7.673 5.028,7.774 4.938,7.889 C5.145,7.939 5.314,7.980 5.485,8.023 C5.487,8.020 5.489,8.017 5.490,8.014 C5.548,7.955 5.628,7.904 5.659,7.834 C5.908,7.273 5.853,6.700 5.710,6.113 C5.454,6.113 5.188,6.077 4.940,6.125 C4.780,6.156 4.564,6.284 4.521,6.414 C4.479,6.541 4.624,6.726 4.687,6.885 C4.733,7.002 4.780,7.119 4.827,7.236 C4.789,7.246 4.751,7.255 4.713,7.265 C4.638,7.221 4.564,7.178 4.455,7.115 C4.418,7.759 4.981,7.351 5.191,7.569 ZM4.898,5.555 C5.514,5.354 6.124,5.342 6.655,5.752 C7.006,6.023 7.310,6.348 7.636,6.650 C7.510,5.706 6.889,5.157 5.958,5.026 C5.265,4.928 4.500,5.250 4.178,5.830 C4.457,5.722 4.674,5.628 4.898,5.555 ZM6.034,10.096 C5.928,10.601 6.231,11.167 6.701,11.259 C6.497,10.902 6.292,10.545 6.034,10.096 ZM7.223,8.979 C7.259,8.948 7.295,8.917 7.331,8.886 C6.961,8.491 6.591,8.096 6.221,7.701 C6.172,7.745 6.123,7.789 6.074,7.833 C6.457,8.215 6.840,8.597 7.223,8.979 ZM5.792,11.125 C5.603,10.794 5.486,10.785 4.741,11.022 C4.777,11.135 4.812,11.249 4.868,11.428 C5.177,11.327 5.481,11.227 5.792,11.125 ZM4.043,13.848 C4.007,13.473 3.970,13.091 3.933,12.710 C3.899,12.706 3.866,12.702 3.833,12.698 C3.756,12.979 3.678,13.261 3.597,13.559 C3.139,13.457 2.975,13.707 2.956,14.147 C3.205,14.178 3.456,14.209 3.717,14.241 C3.741,14.068 3.758,13.946 3.791,13.705 C3.831,13.957 3.852,14.090 3.867,14.185 C4.267,14.149 4.630,14.116 4.994,14.083 C5.001,14.037 5.007,13.991 5.014,13.946 C4.701,13.914 4.389,13.883 4.043,13.848 ZM2.267,6.808 C1.890,6.870 1.869,7.209 1.929,7.529 C2.124,8.554 2.603,9.456 3.238,10.290 C2.837,9.361 2.711,8.408 2.751,7.419 C2.762,7.143 2.710,6.736 2.267,6.808 ZM4.022,7.842 C4.022,7.159 4.022,6.590 4.022,6.020 C3.646,6.600 3.637,7.175 4.022,7.842 ZM17.213,8.273 C17.156,7.949 17.098,7.619 17.040,7.290 C16.997,7.298 16.954,7.306 16.911,7.314 C16.884,7.676 16.699,8.085 17.213,8.273 ZM17.909,15.450 C17.623,15.410 17.328,15.437 17.037,15.436 C16.831,15.435 16.626,15.436 16.420,15.436 C16.422,15.379 16.423,15.322 16.424,15.265 C17.064,15.265 17.703,15.265 18.356,15.265 C18.356,14.953 18.356,14.634 18.356,14.317 C18.035,14.317 17.757,14.310 17.478,14.320 C17.246,14.328 17.051,14.295 16.944,14.638 C16.808,15.073 15.422,15.219 15.225,14.828 C15.013,14.407 14.673,14.451 14.331,14.414 C13.996,14.378 13.659,14.359 13.324,14.332 C13.323,14.369 13.321,14.406 13.320,14.443 C13.478,14.571 13.636,14.699 13.829,14.855 C13.643,14.903 13.506,14.977 13.375,14.966 C12.643,14.907 11.914,14.823 11.182,14.756 C10.725,14.714 10.319,14.627 10.369,13.957 C10.095,14.080 9.832,14.122 9.702,14.271 C9.324,14.705 8.180,14.963 7.656,14.682 C7.348,14.518 7.331,14.240 7.621,14.057 C7.712,14.000 7.816,13.963 7.914,13.917 C7.909,13.879 7.903,13.840 7.897,13.802 C7.169,13.921 6.592,13.635 6.027,13.081 C6.027,13.472 6.020,13.721 6.028,13.971 C6.052,14.706 5.972,14.787 5.208,14.758 C5.110,14.754 5.013,14.729 4.915,14.722 C4.612,14.701 4.328,14.640 4.108,14.980 C4.015,15.124 3.694,15.133 3.477,15.203 C3.769,14.737 3.459,14.692 3.183,14.695 C2.842,14.699 2.501,14.759 2.160,14.793 C2.113,14.797 2.065,14.793 1.987,14.793 C1.944,14.667 1.901,14.540 1.865,14.434 C1.647,14.409 1.466,14.400 1.290,14.367 C0.904,14.295 0.742,14.428 0.769,14.816 C0.796,15.210 0.785,15.608 0.783,16.004 C0.781,16.356 0.916,16.457 1.302,16.394 C1.705,16.328 2.129,16.379 2.545,16.379 C2.544,16.416 2.542,16.453 2.541,16.490 C2.036,16.527 1.531,16.563 0.984,16.603 C1.324,17.096 1.666,17.271 2.320,17.288 C3.718,17.323 5.117,17.330 6.514,17.381 C7.500,17.418 8.484,17.500 9.393,17.938 C9.496,17.988 9.660,17.947 9.788,17.916 C10.373,17.773 10.948,17.522 11.539,17.485 C13.163,17.383 14.793,17.369 16.420,17.318 C16.666,17.310 16.917,17.317 17.158,17.275 C17.708,17.179 18.118,16.910 18.303,16.280 C17.959,16.265 17.662,16.253 17.365,16.240 C17.366,16.199 17.367,16.158 17.369,16.117 C17.696,16.099 18.022,16.082 18.350,16.064 C18.424,15.540 18.426,15.523 17.909,15.450 ZM17.101,15.962 C17.103,16.002 17.106,16.042 17.108,16.082 C16.302,16.082 15.496,16.082 14.548,16.082 C15.482,15.825 16.288,15.795 17.101,15.962 ZM15.720,15.476 C14.707,15.476 13.694,15.476 12.681,15.476 C13.691,15.245 14.704,15.147 15.720,15.476 ZM9.961,16.084 C10.759,15.828 11.570,15.944 12.381,16.078 C12.380,16.121 12.380,16.164 12.379,16.206 C11.573,16.165 10.767,16.124 9.961,16.084 ZM10.015,15.469 C9.591,15.460 9.164,15.549 8.736,15.561 C9.261,15.196 10.790,15.204 11.280,15.651 C10.858,15.586 10.438,15.479 10.015,15.469 ZM10.233,16.755 C8.766,16.755 7.299,16.755 5.922,16.755 C7.285,16.287 8.761,16.492 10.235,16.608 C10.234,16.657 10.233,16.706 10.233,16.755 ZM8.412,15.987 C7.390,15.987 6.324,15.987 5.253,15.987 C5.777,15.652 7.626,15.666 8.412,15.987 ZM6.175,15.321 C5.488,15.321 4.801,15.321 4.017,15.321 C4.786,14.939 5.478,15.027 6.175,15.321 ZM1.895,16.081 C2.620,15.839 3.345,15.709 4.061,16.081 C3.324,16.081 2.610,16.081 1.895,16.081 ZM1.172,15.386 C1.905,15.429 2.657,15.195 3.473,15.549 C2.629,15.549 1.896,15.549 1.163,15.549 C1.166,15.495 1.169,15.440 1.172,15.386 ZM3.104,16.903 C2.680,16.903 2.257,16.903 1.833,16.903 C1.833,16.864 1.833,16.825 1.833,16.786 C2.259,16.786 2.685,16.786 3.111,16.786 C3.109,16.825 3.106,16.864 3.104,16.903 ZM5.011,16.570 C4.608,16.570 4.205,16.570 3.801,16.570 C3.798,16.531 3.794,16.491 3.791,16.452 C4.198,16.452 4.605,16.452 5.013,16.452 C5.012,16.491 5.012,16.531 5.011,16.570 ZM16.462,16.645 C15.482,16.645 14.502,16.645 13.522,16.645 C13.518,16.588 13.514,16.531 13.509,16.474 C14.493,16.474 15.478,16.474 16.462,16.474 C16.462,16.531 16.462,16.588 16.462,16.645 ZM13.140,4.110 C13.133,4.035 13.126,3.960 13.119,3.884 C14.138,3.889 15.153,3.818 16.177,3.889 C16.585,3.917 16.995,3.912 17.403,3.922 C17.397,3.985 17.391,4.048 17.385,4.110 C15.970,4.110 14.556,4.110 13.140,4.110 ZM12.466,2.687 C12.466,2.624 12.466,2.562 12.466,2.499 C13.912,2.499 15.359,2.499 16.806,2.499 C16.807,2.548 16.809,2.596 16.810,2.644 C15.362,2.841 13.915,2.593 12.466,2.687 ZM13.174,3.531 C12.846,3.531 12.520,3.531 12.193,3.531 C12.188,3.489 12.184,3.447 12.179,3.404 C12.510,3.404 12.840,3.404 13.171,3.404 C13.172,3.447 13.173,3.489 13.174,3.531 ZM10.458,2.353 C10.958,2.353 11.395,2.353 11.861,2.353 C11.643,2.710 10.916,2.711 10.458,2.353 ZM5.171,3.328 C6.392,3.328 7.612,3.328 8.834,3.328 C8.834,3.371 8.835,3.414 8.835,3.457 C7.613,3.457 6.391,3.457 5.170,3.457 C5.170,3.414 5.170,3.371 5.171,3.328 ZM6.996,1.696 C6.997,1.655 6.998,1.615 7.000,1.574 C7.426,1.574 7.851,1.574 8.277,1.574 C8.276,1.615 8.274,1.655 8.273,1.696 C7.847,1.696 7.421,1.696 6.996,1.696 ZM4.964,2.804 C4.964,2.795 4.964,2.786 4.964,2.778 C4.291,2.778 3.617,2.783 2.945,2.771 C2.858,2.770 2.773,2.683 2.688,2.636 C2.785,2.585 2.881,2.489 2.979,2.488 C3.998,2.477 5.017,2.476 6.036,2.486 C6.138,2.487 6.238,2.578 6.339,2.627 C6.243,2.686 6.150,2.790 6.050,2.795 C5.689,2.816 5.326,2.804 4.964,2.804 ZM4.199,1.931 C3.223,1.931 2.247,1.931 1.245,1.931 C1.484,1.665 3.500,1.622 4.199,1.931 ZM2.277,3.413 C2.709,3.413 3.034,3.413 3.375,3.413 C3.204,3.733 2.686,3.763 2.277,3.413 Z"/>
</svg>