<?xml version="1.0" standalone="no"?>
<!DOCTYPE svg PUBLIC "-//W3C//DTD SVG 1.1//EN" "http://www.w3.org/Graphics/SVG/1.1/DTD/svg11.dtd">
<svg xmlns="http://www.w3.org/2000/svg">
<metadata>Copyright (C) 2017 by original authors @ fontello.com</metadata>
<defs>
<font id="my-iconfont" horiz-adv-x="1000" >
<font-face font-family="my-iconfont" font-weight="400" font-stretch="normal" units-per-em="1000" ascent="850" descent="-150" />
<missing-glyph horiz-adv-x="1000" />
<glyph glyph-name="arrow-left" unicode="&#xe800;" d="M718-150l-496 504 496 496 58-58-436-440 438-444-60-58z" horiz-adv-x="1000" />

<glyph glyph-name="arrow-right" unicode="&#xe801;" d="M222-92l438 444-438 440 60 58 496-496-496-504-60 58z" horiz-adv-x="1000" />

<glyph glyph-name="calendar" unicode="&#xe802;" d="M0-68c0-52 30-82 82-82 280 0 560 0 840 0 48 0 78 32 78 78 0 248 0 494 0 742 0 46-32 78-78 78-20 0-42 0-62 0l-64 0v102h-88v-100h-420v100h-86v-102l-44 0c-12 0-24 0-34 0-14 0-28 0-42 0-52 0-82-30-82-82 0-30 0-58 0-88l0-38 0-164c0-148 0-296 0-444z m912 6h-824v520h824v-520z m-824 724h824v-114h-824v114z m470-412c-34 0-66 0-100 0 0 34 0 66 0 100 32 0 66 0 100 0 0-34 0-66 0-100z m104 0c0 34 0 66 0 100 34 0 66 0 100 0 0-32 0-66 0-100-34 0-66 0-100 0z m-306-104c0-34 0-66 0-100-34 0-66 0-100 0 0 34 0 66 0 100 32 0 66 0 100 0z m104 0c34 0 66 0 100 0 0-34 0-66 0-100-32 0-66 0-100 0 0 34 0 66 0 100z" horiz-adv-x="1000" />

<glyph glyph-name="check-rounded" unicode="&#xe803;" d="M876 726c24-24 48-48 70-70-168-168-336-336-502-502-74 74-150 150-224 224 22 22 46 46 68 68 50-50 102-102 154-154 146 146 290 290 434 434z m36-286c10-50 14-102 4-156-30-190-188-336-378-354-260-22-476 192-458 450 14 204 178 372 382 390 82 8 160-10 228-44 8-4 16-2 22 4l30 30c10 10 6 24-4 30-80 44-172 66-270 60-250-18-450-218-466-466-20-308 240-562 550-532 226 22 412 200 444 424 10 72 6 142-12 206-4 14-22 18-32 8l-34-34c-6-2-8-10-6-16z" horiz-adv-x="1000" />

<glyph glyph-name="check" unicode="&#xe804;" d="M916-150h-832c-46 0-84 38-84 84v832c0 46 38 84 84 84h834c44 0 82-38 82-84v-834c0-44-38-82-84-82z m-832 918l0-834 834 0c0 0 0 0 0 0v832l-834 2z" horiz-adv-x="1000" />

<glyph glyph-name="checked" unicode="&#xe805;" d="M1000 596v-662c0-46-38-84-84-84h-832c-46 0-84 38-84 84v832c0 46 38 84 84 84h834c42 0 76-30 82-70-180-180-362-362-544-544-68 68-136 136-202 202-30-30-62-60-90-90 98-98 198-198 296-296 178 182 358 362 540 544z" horiz-adv-x="1000" />

<glyph glyph-name="open-quote" unicode="&#xe806;" d="M476 548l-74-364h-132l106 364h100z m254 0l-74-364h-132l106 364h100z" horiz-adv-x="1000" />

<glyph glyph-name="close-quote" unicode="&#xe807;" d="M524 184l74 364h132l-106-364h-100z m-254 0l74 364h132l-106-364h-100z" horiz-adv-x="1000" />

<glyph glyph-name="down" unicode="&#xe808;" d="M1000 546l-504-496-496 496 102 104 396-396 400 396 102-104z" horiz-adv-x="1000" />

<glyph glyph-name="up" unicode="&#xe809;" d="M0 154l504 496 496-496-102-104-396 396-400-396-102 104z" horiz-adv-x="1000" />

<glyph glyph-name="close" unicode="&#xe80a;" d="M612 350l388-388-112-112-388 388-388-388-112 112 388 388-388 388 112 112 388-388 388 388 112-112-388-388z" horiz-adv-x="1000" />

<glyph glyph-name="deadline" unicode="&#xe80b;" d="M966 650c-16 114-114 196-230 198 0 0 0 0-2 0-54 0-106-18-146-52-8-6-14-14-18-22-46 8-92 10-140 2-4 6-8 10-12 14-54 48-118 68-188 58-116-18-198-114-200-236v0c0-42 14-84 38-122 6-8 10-14 18-20-8-26-12-52-14-80-8-122 30-230 112-320-20-28-38-56-56-82l-62-90 68-48 112 162c164-104 330-104 492 0l112-162 66 46-12 18c-2 2-2 4-4 6l-20 34c-26 38-52 76-80 114 100 106 138 258 104 396 10 6 20 14 28 26 32 48 44 102 34 160z m-476 48c0 0 2 0 0 0 188 0 342-152 342-340 0-90-36-176-100-240-64-64-150-100-240-100 0 0 0 0 0 0-186 0-340 154-340 340 0 58 16 116 44 166 34 52 78 96 130 128 14 8 30 16 44 24 38 14 78 22 120 22z m-368-134c-16 42-14 106 30 152 32 34 70 48 108 48 24 0 48-6 68-16 0 0 0 0 0 0-84-36-154-100-200-178-2-2-4-4-6-6z m548 182c42 22 108 26 162-18 54-44 64-114 44-164-50 80-120 142-206 182z m-218-382c0 52 0 106 0 158l0 86h82l0-76c0-52 0-104 0-156 46-36 90-70 136-106l30-20c2-2 4-4 6-4l18-16-50-64-136 104c-22 16-44 34-64 50-16 12-22 26-22 44z" horiz-adv-x="1000" />

<glyph glyph-name="favourite-o" unicode="&#xe80c;" d="M502 658c28 30 62 54 96 76 94 60 190 58 286 8 68-36 100-96 112-170 16-96-16-180-76-252-30-36-64-68-96-100-98-96-196-190-294-284-20-20-38-20-58 0-114 108-226 218-340 326-46 44-84 92-110 152-28 64-30 130-10 196 28 90 92 142 182 162 92 20 174-4 246-62 20-18 40-34 62-52z m-2-650c2 2 4 4 6 6 106 102 212 204 316 306 18 16 34 36 48 54 46 58 68 122 52 196-8 40-24 76-58 102-44 30-92 40-144 36-36-2-68-20-98-40-36-24-66-52-96-84-16-18-40-18-56 0-20 20-42 42-64 60-54 46-116 74-190 60-50-10-96-28-122-78-28-54-34-112-14-172 20-48 50-90 86-124 66-66 134-130 202-194 44-44 88-86 132-128z" horiz-adv-x="1000" />

<glyph glyph-name="filter" unicode="&#xe80d;" d="M1000 564h-1000v80h1000v-80z m-300-482h-400v-80h400v80z m150 282h-700v-80h700v80z" horiz-adv-x="1000" />

<glyph glyph-name="folder-open" unicode="&#xe80e;" d="M1186 390c-16 28-44 44-76 44h-110v110c0 42-34 76-76 76h-462v90c0 36-30 66-66 66h-330c-36 0-66-30-66-66v-720c0-36 30-66 66-66h54 76 732c32 0 62 18 78 46l180 332c18 28 16 60 0 88z m-806 304v-158h538v-102h-616c-32 0-62-18-78-46l-140-258v564h296z m736-354l-180-332c-2-2-4-4-6-4h-732-76c0 0-4 0-6 2-2 2 0 6 0 6l180 332c2 2 4 4 6 4h808c0 0 4 0 6-2 2-2 0-4 0-6z" horiz-adv-x="1200" />

<glyph glyph-name="folder" unicode="&#xe80f;" d="M924-76h-858c-36 0-66 30-66 66v720c0 36 30 66 66 66h330c36 0 66-30 66-66v-92h462c42 0 76-34 76-76v-542c0-42-34-76-76-76z m-842 82h834v530h-536v158h-298v-688z" horiz-adv-x="1000" />

<glyph glyph-name="mail" unicode="&#xe810;" d="M922 800c-20 0-826 0-840 0-52 0-82-30-82-82 0-30 0-588 0-736 0-52 30-82 82-82 280 0 560 0 840 0 48 0 78 32 78 78 0 248 0 494 0 742 0 48-32 80-78 80z m-834-742l0 588 248-276-248-312z m306 248l106-116 104 114 252-316h-716l254 318z m266 60l250 278 0-590-250 312z m200 346l-360-398-360 398h720z" horiz-adv-x="1000" />

<glyph glyph-name="notice" unicode="&#xe811;" d="M76 52l0 0c0 26 22 48 48 48h30c0 8 0 14 0 20 0 96 0 190 0 286 0 168 110 306 276 342 8 2 14 4 24 4v98h96v-98c10-2 20-4 28-6 140-30 250-150 268-294 2-18 2-36 2-54 0-94 0-186 0-280 0-6 0-10 0-18h30c26 0 48-22 48-48v0c0-26-22-48-48-48h-754c-26 0-48 22-48 48z m672 48c0 6 0 10 0 14 0 98 0 198 0 296 0 12-2 24-2 36-16 118-120 210-238 212-144 4-258-108-258-252 0-96 0-194 0-290 0-4 0-10 0-16 166 0 332 0 498 0z m-200-156h-96c-26 0-48-22-48-48v0c0-26 22-48 48-48h96c26 0 48 22 48 48v0c-2 28-22 48-48 48z" horiz-adv-x="1000" />

<glyph glyph-name="photo" unicode="&#xe812;" d="M1000 504c0 14-2 26-4 38-14 72-68 118-138 116-18 0-38 0-56 0-12 0-22 0-34 0-8 20-14 42-22 62l-6 18c-14 40-48 64-90 64-100 0-198 0-298 0-42 0-76-24-90-64l-6-20c-8-20-14-40-20-60-24 0-46 0-70 0l-26 0c-66 0-114-36-132-100-6-24-8-50-8-72 0-66 0-130 0-196 0-82 0-166 0-248 0-44 14-80 40-106 24-24 60-38 102-38 0 0 2 0 2 0 82 2 168 0 250 0 36 0 70 0 106 0 0 0 0 0 0 0l104 0c88 0 176 0 264 0 60 0 106 32 124 84 6 18 8 36 8 56 0 160 0 316 0 466z m-912-470c0 24 0 50 0 74l0 32 0 86c0 90 0 184 0 276 0 14 4 28 8 42 8 18 22 26 44 26 36 0 70 0 106 0l14 0c30 0 42 8 52 38l10 30c10 24 18 48 26 72 0 2 2 4 2 4 0 0 0 0 4 0 4 0 6 0 10 0l274 0c8 0 12 0 12 0 0-2 2-4 4-12l34-98c8-24 20-32 46-32 28 0 58 0 86 0l32 0c38 0 58-20 60-58 0-4 0-10 0-14l0-88c0-122 0-246 0-368 0-10 0-18-2-24-4-14-12-32-48-32-58 0-116 0-174 0l-68 0-192 0c-94 0-190 0-284 0-6 0-16 0-24 2-28 6-32 30-32 44z m412-16c0 0 0 0 0 0 76 0 146 30 198 82 54 54 82 124 82 198 0 154-126 280-280 280 0 0 0 0 0 0-74 0-144-30-198-82-54-54-82-124-82-198 0-154 126-280 280-280z m-188 280c0 50 20 98 56 132 36 36 82 56 134 56 0 0 0 0 0 0 104 0 188-84 188-188 0-50-20-98-56-134-36-34-84-54-134-54 0 0 0 0 0 0-104 0-188 84-188 188z" horiz-adv-x="1000" />

<glyph glyph-name="picture" unicode="&#xe813;" d="M566-24c-112 0-224 0-336 0-58 0-98 40-98 98 0 224 0 450 0 674 0 60 40 100 100 100 224 0 448 0 670 0 58 2 98-38 98-96 0-226 0-452 0-678 0-56-42-96-96-96-114-2-226-2-338-2z m-372 438c0-112 0-222 0-334 0-28 10-38 38-38 222 0 444 0 664 0 28 0 38 10 38 38 0 222 0 444 0 666 0 28-10 40-38 40-222 0-444 0-668 0-24 0-36-12-36-36 2-112 2-224 2-336z m-114 308c-50-8-80-46-80-98 0-224 0-448 0-672 0-62 40-102 102-102 212 0 424 0 636 0 18 0 36 0 54 2 44 6 80 50 76 92-20 0-42 0-62 0-10-26-16-30-44-30-148 0-296 0-444 0-72 0-144 0-216 0-26 0-38 10-38 38 0 4 0 10 0 14 0 216 0 432 0 648 0 22 4 40 30 46 0 22 0 42 0 64-6 0-10 0-14-2z m722-542c8 0 16 0 22 2 14 4 22 14 20 30-2 8-6 16-10 24-34 62-68 124-102 184-12 22-24 46-38 68-6 12-16 20-30 20-12 0-20-8-26-18-16-26-32-50-48-76-12-20-24-40-38-60-18-26-46-34-72-20-32 18-62 12-86-16-26-30-52-62-78-94-4-4-8-10-10-16-6-12-2-24 12-26 6-2 14-2 22-2 78 0 154 0 232 0 76 0 152 0 230 0z m-336 354c-2 50-40 88-90 86-50-2-86-42-86-92 0-48 42-86 88-84 50 2 88 42 88 90z" horiz-adv-x="1000" />

<glyph glyph-name="play" unicode="&#xe814;" d="M384 350c0 54 0 108 0 164 0 18 4 22 20 12 94-54 190-110 284-164 16-10 16-14 0-24-94-54-188-110-284-164-18-10-20-8-20 12 0 56 0 110 0 164z m616 0c0 276-224 500-500 500s-500-224-500-500 224-500 500-500 500 224 500 500z m-80 0c0-232-188-420-420-420s-420 188-420 420c0 232 188 420 420 420s420-188 420-420z" horiz-adv-x="1000" />

<glyph glyph-name="rss" unicode="&#xe815;" d="M916 850h-832c-46 0-84-38-84-84v-834c0-44 38-82 84-82h834c46 0 84 38 84 84v832c-2 46-40 84-86 84z m-680-860c-52 0-96 44-96 98 0 52 44 96 96 96 54 0 96-44 96-96 0-56-42-98-96-98z m250 6c-4 92-36 172-102 238-66 66-146 100-238 102 0 42 0 84 0 126 122-4 230-46 318-130 96-92 144-204 148-336-42 0-84 0-126 0z m248 0c-4 160-62 298-174 412-114 114-252 170-412 176 0 42 0 84 0 126 170-4 320-58 450-166 170-142 254-326 262-548-42 0-84 0-126 0z" horiz-adv-x="1000" />

<glyph glyph-name="search" unicode="&#xe816;" d="M618 140c-46-32-95-57-152-67-98-22-190-4-275 49-96 60-159 145-184 255-25 98-3 194 50 279 60 95 144 159 254 183 99 25 194 4 279-49 96-60 159-145 184-254 25-103 3-198-53-287-4-7-11-14-14-21 92-92 180-180 272-272 25-25 25-67 0-92 0 0 0 0 0 0-25-25-67-25-92 0-88 95-180 184-269 276z m36 318c0 7 0 14 0 21 0 11-4 21-4 32-14 85-60 148-138 184-49 24-102 31-159 24-70-10-127-42-173-99-39-56-53-120-49-187 3-67 28-124 78-170 45-42 98-63 159-67 77-7 151 14 208 71 57 49 78 117 78 191z" horiz-adv-x="1000" />

<glyph glyph-name="share" unicode="&#xe817;" d="M792 218c-56 0-106-24-138-64l-268 146c4 16 8 34 8 52 0 18-2 34-8 52l268 146c34-40 84-64 138-64 102 0 184 82 184 184s-84 180-184 180-184-82-184-184c0-18 2-34 8-52l-268-144c-34 40-84 64-138 64-102 0-184-82-184-184s82-184 184-184c56 0 106 24 138 64l268-146c-4-16-8-34-8-52 0-102 82-184 184-184s184 82 184 184-84 186-184 186z m0 554c58 0 106-48 106-106 0-58-48-106-106-106-58 0-106 48-106 106 0 58 46 106 106 106z m-584-528c-58 0-106 48-106 106s48 106 106 106c58 0 106-48 106-106s-46-106-106-106z m584-316c-58 0-106 48-106 106 0 58 48 106 106 106 58 0 106-48 106-106-2-58-48-106-106-106z" horiz-adv-x="1000" />

<glyph glyph-name="tags" unicode="&#xe818;" d="M86 200l-60 58c-18 18-28 40-28 64s10 48 26 64l434 438c16 18 40 26 64 26h240c50 0 90-40 90-90v-24h-84v24c0 4-4 8-8 8h-240c-2 0-4 0-6-2l-428-438c-2-2-2-4-2-6 0-2 0-4 2-6l60-58-60-58z m454-324l434 434c18 18 26 40 26 64v238c0 50-40 90-90 90h-240c-24 0-48-10-64-26l-434-436c-18-18-26-40-26-64s10-48 28-64l240-236c18-18 40-26 64-26 22 0 44 8 62 26z m370 744c4 0 8-4 8-8v-238c0-2 0-4-2-6l-434-432c-2-2-8-2-10 0l-240 234c-2 2-2 4-2 6s0 4 2 6l432 436c2 2 4 2 6 2 0 0 240 0 240 0z m-76-144c0 34-28 64-64 64-34 0-64-28-64-64 0-34 28-64 64-64 34 2 64 30 64 64z" horiz-adv-x="1000" />

<glyph glyph-name="video" unicode="&#xe819;" d="M916 850h-832c-46 0-84-38-84-84v-834c0-44 38-82 84-82h834c46 0 84 38 84 84v832c-2 46-40 84-86 84z m-228-918l-372 0v232 144h372v-144-232z m-372 694v142l372 0v-140-234h-372v232z m600-228h-144v144h144v-144z m-684 0h-144v144h144v-144z m-150-90h150v-144h-150l0 144z m688 0h146v-144h-146v144z m148 458v-140h-146v140l146 0z m-686 2v-142h-148l0 142 148 0z m-150-834l0 148h150v-148l-150 0z m834-2l-146 0v148h146l0-148c2 2 0 0 0 0z" horiz-adv-x="1000" />

<glyph glyph-name="fb" unicode="&#xe81a;" d="M498 848c280-2 502-220 502-498s-222-500-502-500c-276 0-498 220-498 500s222 496 498 498z m-124-498c14 0 24 0 36 0 14 0 14 0 14-14 0-80 0-158 0-240 0-10 4-14 14-14 28 0 56 0 88 0 14 0 14 0 14 14 0 80 0 158 0 240 0 8 4 10 10 10 18 0 38 0 56 0 4 0 8 0 8 8 4 28 4 56 8 80 0 4 0 4 0 8-4 0-8 0-10 0-22 0-42 0-60 0-8 0-10 4-10 10 0 14 0 32 0 46 0 14 8 22 22 22 18 0 32 0 50 0 8 0 10 0 10 10 0 24 0 52 0 78 0 8 0 10-8 10-32 0-64 0-96-4-46-4-82-36-88-80-4-18-4-36-4-52 0-10 0-24-4-36-10 0-24 0-36 0-4 0-8 0-14 0 0-34 0-66 0-96z" horiz-adv-x="1000" />

<glyph glyph-name="gplus" unicode="&#xe81b;" d="M500 850c-276 0-500-224-500-500s224-500 500-500 500 224 500 500-224 500-500 500z m-96-704c-6 0-14 0-20 0-112 0-204 92-204 204s92 204 204 204c50 0 100-18 136-54l-56-52c-22 20-50 32-82 32-70 0-126-58-126-128 0-70 56-128 126-128 56-4 104 34 116 88h-116v68h192c2-10 4-22 4-32 8-106-70-194-174-202z m416 176h-60v-60h-60v60h-60v60h60v60h60v-60h60v-60z" horiz-adv-x="1000" />

<glyph glyph-name="instagram" unicode="&#xe81c;" d="M498 248c56-2 102 44 104 100 2 56-44 104-102 104-56 0-100-44-102-100 0-58 46-102 100-104z m156 84c-2-22-10-44-22-62-12-20-26-36-46-48-48-32-112-36-164-8-26 14-46 34-60 60-22 38-24 80-12 122-16 0-32 0-48 0v-2c0-74 0-148 0-222 0-10 10-20 20-20 118 0 236 0 352 0 10 0 20 10 20 20 0 74 0 148 0 222v2h-48c10-20 12-42 8-64z m-44 154c2-8 10-14 20-14 8 0 16 0 22 0l0 0c8 0 16 0 24 0 10 0 20 10 20 20 0 16 0 32 0 48 0 12-10 20-20 20-16 0-32 0-48 0-12 0-20-10-20-20 0-16 0-32 0-48 0-2 0-4 2-6z m-110 364c-276 0-500-224-500-500s224-500 500-500 500 224 500 500-224 500-500 500z m250-700c0-2 0-4-2-6-4-20-20-38-42-42-2 0-6-2-8-2h-398c-2 0-2 0-4 0-22 2-40 20-46 42 0 2-2 6-2 8v400c0 2 0 2 0 2 4 22 20 40 42 46 2 0 4 0 8 2h402c2 0 2 0 2 0 22-4 42-20 46-42 0-2 0-4 2-6l0-402 0 0z" horiz-adv-x="1000" />

<glyph glyph-name="mail-1" unicode="&#xe81d;" d="M500 850c-276 0-500-224-500-500s224-500 500-500 500 224 500 500-224 500-500 500z m224-300c-76-84-150-168-224-252-74 84-148 168-222 252 148 0 296 0 446 0z m-478-360c0 108 0 214 0 322 0 4 2 10 2 16 54-60 106-120 158-180-52-58-106-114-158-172 0 4-2 10-2 14z m30-38c52 56 104 112 154 168 22-26 44-50 66-76 22 26 44 50 68 76 50-56 100-112 152-168-146 0-292 0-440 0z m474 38c0-6-2-12-4-20-54 60-106 116-158 176 52 60 106 118 158 178 0-6 2-10 2-14 2-106 2-212 2-320z" horiz-adv-x="1000" />

<glyph glyph-name="othersocial" unicode="&#xe81e;" d="M502 850c-280 0-502-222-502-500s222-502 502-502 498 226 498 502-222 500-498 500z m-254-576c-42 0-74 32-74 74s32 74 74 74 74-32 74-74-32-74-74-74z m254 0c-42 0-74 32-74 74s32 74 74 74 74-32 74-74-36-74-74-74z m250 0c-42 0-74 32-74 74s32 74 74 74c42 0 74-32 74-74s-30-74-74-74z" horiz-adv-x="1000" />

<glyph glyph-name="tw" unicode="&#xe81f;" d="M502 848c-280 0-502-220-502-498s222-500 502-500 498 224 498 500-222 498-498 498z m244-372c0-8 0-10 0-18 0-166-128-356-356-356-70 0-138 22-194 56 10 0 22 0 28 0 60 0 114 22 156 52-56 0-102 38-116 88 8 0 14-4 24-4 10 0 22 0 32 4-56 10-102 64-102 124l0 0c18-10 36-14 56-14-36 22-56 60-56 106 0 24 8 46 18 64 64-78 156-126 258-130 4 8 4 14 4 24 0 70 56 126 128 126 36 0 68-14 92-38 28 8 56 18 82 32-10-28-28-52-56-70 24 4 50 10 70 22-22-30-44-50-68-68z" horiz-adv-x="1000" />

<glyph glyph-name="whatsapp-isolated" unicode="&#xe820;" d="M852 704c-92 94-218 146-350 146-274 0-496-222-496-496 0-88 22-172 66-248l-70-256 262 68c72-40 154-60 236-60h0c0 0 0 0 0 0 274 0 496 222 496 496 2 132-50 258-144 350z m-350-762l0 0c-74 0-146 20-210 58l-16 8-156-40 42 152-10 16c-42 66-64 142-62 220 0 228 184 412 412 412 110 0 214-42 292-120 78-78 120-182 120-292 0-228-184-414-412-414z m226 308c-12 6-74 36-84 40-12 4-20 6-28-6-8-12-32-40-40-48-8-8-14-10-26-4-12 6-52 20-100 62-36 32-62 74-68 86-8 12 0 20 6 26 6 6 12 14 18 22 6 8 8 12 12 20 4 8 2 16-2 22-4 6-28 68-38 92-10 24-20 20-28 22-8 0-16 0-24 0-8 0-22-4-34-16-12-12-44-42-44-104 0-60 44-120 50-128 6-8 88-134 212-186 30-12 52-20 70-26 30-10 56-8 78-4 24 4 74 30 84 58 10 28 10 54 8 58-2 6-10 8-22 14z" horiz-adv-x="1000" />

<glyph glyph-name="yt" unicode="&#xe821;" d="M424 238l190 112-190 116v-228z m78 612c-280 0-502-222-502-500s222-500 502-500 498 226 498 500c0 278-222 500-498 500z m304-524c0-52-8-106-8-106s-8-46-24-64c-24-24-50-24-60-28-84-8-216-8-216-8s-160 0-208 8c-14 4-46 4-68 28-18 22-24 64-24 64s-8 52-8 106v50c0 52 8 106 8 106s8 46 24 64c24 28 54 28 64 28 84 8 216 8 216 8l0 0c0 0 128 0 216-8 10 0 38 0 60-28 18-22 24-64 24-64s8-52 8-106l-4-50 0 0z" horiz-adv-x="1000" />

<glyph glyph-name="minus" unicode="&#xe822;" d="M0 430h1000v-158h-1000v158z" horiz-adv-x="1000" />

<glyph glyph-name="plus" unicode="&#xe823;" d="M580 430v420h-160v-420h-420v-160h420v-420h160v420h420v160h-420z" horiz-adv-x="1000" />

<glyph glyph-name="square" unicode="&#xe824;" d="M1000-150h-1000v1000h1000v-1000z" horiz-adv-x="1000" />

<glyph glyph-name="clock" unicode="&#xe825;" d="M500 768c230 0 418-188 418-418s-188-418-418-418-418 188-418 418 188 418 418 418m0 82c-276 0-500-224-500-500s224-500 500-500 500 224 500 500-224 500-500 500l0 0z m-40-266c0-94 0-190 0-284 0-8 2-12 10-16 82-50 164-100 246-152 4-2 6-4 10-6 14 22 26 44 40 66-4 2-8 4-10 6-70 42-138 84-208 124-8 4-12 10-12 20 0 80 0 160 0 240 0 4 0 8 0 12-26 0-50 0-76 0 0-2 0-6 0-10z" horiz-adv-x="1000" />

<glyph glyph-name="doc" unicode="&#xe826;" d="M500 850h-344c-22 0-40-18-40-40v-920c0-22 18-40 40-40h688c22 0 40 18 40 40v594l-384 366z m300-400v-516h-600v834h268l32-32v-252h264l36-34z" horiz-adv-x="1000" />

<glyph glyph-name="eye" unicode="&#xe827;" d="M500 44c-204 0-392 110-494 286-8 12-8 28 0 40 102 176 290 286 494 286s392-110 494-286c8-12 8-28 0-40-102-176-290-286-494-286z m-412 306c90-138 246-224 412-224s322 86 412 224c-90 138-246 224-412 224s-322-86-412-224z m412-172c-96 0-172 78-172 172s78 172 172 172 172-78 172-172-76-172-172-172z m0 262c-50 0-90-40-90-90s40-90 90-90 90 40 90 90-40 90-90 90z" horiz-adv-x="1000" />

<glyph glyph-name="user" unicode="&#xe828;" d="M954-38c-38 126-128 232-244 290 76 62 126 156 126 262 0 186-150 336-336 336s-336-150-336-336c0-106 50-200 126-262-116-58-206-164-244-290-8-26-2-54 14-76 16-24 42-36 70-36h742c28 0 52 12 70 34 14 22 20 50 12 78z m-708 552c0 140 114 254 254 254s254-114 254-254c0-140-114-254-254-254s-254 114-254 254z m628-580c-2-2-2-2-2-2h-742c0 0-2 0-2 2-2 2 0 4 0 4 36 124 134 222 256 260 36-14 76-22 118-22 42 0 82 8 118 22 122-38 220-138 256-260-2 0 0-2-2-4z" horiz-adv-x="1000" />

<glyph glyph-name="phone" unicode="&#xe829;" d="M994 176l0 0c-18 46-50 74-98 84l-10 2c-34 6-68 12-102 22-56 14-106-2-144-46-8-10-18-18-26-28-6-6-12-12-18-18-106 64-192 148-254 254 10 10 20 20 30 30 10 10 18 18 28 28 32 32 44 70 34 118-4 26-10 52-16 78-4 16-6 32-10 50-12 60-60 102-122 102-62 0-114 0-162 0-36 0-70-14-94-42-22-26-34-60-28-94 6-44 10-86 22-128 82-328 284-556 600-680 66-26 142-44 236-54 4 0 10 0 14 0 62 0 116 44 124 104 2 12 2 26 2 36 0 166-4 178-6 182z m-90-148c0-16 0-34 0-50 0-8-4-16-8-22-4-4-12-6-20-6-62 4-126 16-190 38-272 94-458 282-552 554-18 50-30 106-36 172-2 10-2 18 0 24 2 12 14 20 26 20 28 0 54 0 82 0 28 0 54 0 82 0 14 0 24-10 28-24 8-40 16-82 24-122l2-8c2-12 0-22-8-30-20-20-40-40-60-60-32-32-38-72-14-112 72-122 168-218 288-290 42-26 80-20 116 14l14 14c14 14 28 28 42 42 10 12 22 14 38 10 28-6 56-12 84-18 14-2 28-6 40-8 18-4 26-14 26-32 0-18 0-38 0-56l-4-50z" horiz-adv-x="1000" />

<glyph glyph-name="spid" unicode="&#xe82a;" d="M500 850c-276 0-500-224-500-500s224-500 500-500 500 224 500 500-224 500-500 500z m-148-746c0 82 66 148 148 148 82 0 148-66 148-148h-296z m148 194c-82 0-148 66-148 148s66 148 148 148c82 0 148-66 148-148s-66-148-148-148z" horiz-adv-x="1000" />

<glyph glyph-name="link" unicode="&#xe82b;" d="M792 288c0-36-12-66-38-92-104-102-206-206-308-308-50-50-132-52-182-2-36 36-74 72-108 108-50 52-48 132 2 182 26 28 54 54 80 80 12 12 26 16 42 10 16-6 26-18 28-34 2-14-4-26-14-36-26-26-54-54-80-80-18-18-20-46-2-64 36-38 74-76 112-112 14-14 40-14 56-2 4 2 6 6 10 8 100 100 202 200 302 300 26 26 26 50 0 76-34 34-66 66-100 100-20 20-48 22-70 0-30-30-58-58-88-88-20-18-46-16-62 4-12 16-12 38 2 52 34 34 66 68 102 100 50 44 124 40 172-6 36-36 72-70 108-108 24-20 34-52 36-88z m-548 30c36-36 70-72 106-106 52-50 132-50 182-2 30 28 58 56 86 86 6 6 10 14 12 22 4 18-4 36-20 44-16 8-34 6-48-8-28-28-56-56-84-84-22-22-48-22-70 0-22 22-44 44-66 66-14 14-26 26-40 40-18 20-18 46 0 64 102 102 204 204 306 306 24 24 50 24 74 0 34-34 68-68 100-100 22-22 22-48 0-72-22-22-42-42-64-64-10-10-14-22-14-34 2-18 12-28 28-34 16-6 30-2 42 10 22 22 42 42 64 64 56 58 58 136 0 194-32 32-66 66-98 98-54 54-136 54-190 0-102-102-204-206-306-308-26-26-38-56-38-94 2-32 14-62 38-88z" horiz-adv-x="1000" />

<glyph glyph-name="print" unicode="&#xe82c;" d="M1000 416c0 48-36 90-86 96-16 2-32 2-46 2-6 0-14 0-20 0 0 0-2 0-2 0l0 64c0 56 0 112 0 168 0 30-10 58-30 76-20 20-46 30-76 30h-480c-64 0-108-44-108-108l0-230h-44c-64 0-108-44-108-108v-278c0-64 44-108 108-108l46 0v-60c0-64 44-108 108-108l352 0c18 0 38 0 56 0 26 0 50 0 76 0 50 0 92 36 100 86 2 12 2 26 2 38 0 4 0 10 0 14 0 8 0 18 0 28l0 2 10 0c14 0 28 0 44 0 54 2 100 46 100 98-2 94-2 192-2 298z m-740 354c160 0 320 0 480 0 18 0 24-8 24-24l0-230h-530c0 76 0 152 0 228 0 20 6 26 26 26z m588-626c20 6 32 24 30 44-2 22-20 36-42 36-34 0-68 0-102 0l-148 0c-140 0-278 0-418 0-6 0-12 0-16-2-18-4-28-20-28-38 0-18 12-32 28-38 0 0 2 0 2 0v-42c-4 0-6 0-10 0-16 0-32 0-46 0-10 0-14 12-14 22l0 134 0 154c0 14 8 22 22 22l792 0c16 0 24-8 24-24 0-94 0-190 0-284 0-16-8-24-24-24l-48 0v40z m-614-190c0 50 0 98 0 148l0 42h532l0-186c0-14-8-22-22-22-162 0-324 0-486 0-14-4-24 4-24 18z m96 442c8-8 12-18 12-30 0-22-18-40-42-40l-88 0c-6 0-14 0-20 0-10 0-18 0-28 0-24 0-42 18-42 40 0 24 18 40 42 40 46 0 90 0 136 0 12 2 22-2 30-10z m-54-312c0 8 2 14 8 20 8 8 20 12 32 12 44 0 86 0 130 0l52 0 42 0c46 0 92 0 138 0 10 0 20-2 28-8 10-6 16-16 16-26 0-10-6-20-16-26-8-4-16-6-24-6-68 0-136 0-204 0-54 0-108 0-162 0-22 0-40 16-40 34z m0-92c0 10 6 20 16 26 8 4 16 6 24 6 122 0 244 0 366 0 6 0 12-2 20-4 14-4 20-16 20-28 0-14-8-24-22-30-8-2-16-4-22-4-46 0-94 0-140 0l-40 0v0l-44 0c-14 0-28 0-44 0-30 0-62 0-92 0-10 0-20 2-28 6-8 6-14 16-14 28z" horiz-adv-x="1000" />

<glyph glyph-name="edit" unicode="&#xe82d;" d="M988 556l-278 284c-8 8-18 12-30 12 0 0 0 0 0 0-12 0-22-4-30-12l-638-634c0 0 0 0 0 0-2-2-4-4-4-6 0 0 0 0 0 0-2-2-2-4-4-6 0 0 0-2 0-2 0-2-2-4-2-6 0 0 0-2 0-2 0-2 0-4 0-8v-280c0-24 20-42 42-42h282c2 0 4 0 8 0 0 0 2 0 2 0 2 0 4 0 6 2 0 0 2 0 2 0 2 0 4 2 6 4 0 0 0 0 0 0 2 2 4 4 6 4 0 0 0 0 0 0l634 630c14 20 14 46-2 62z m-902-618v134l136-134h-136z m18 238l432 430 220-220-432-430-220 220z m712 272l-220 220 84 82 218-222-82-80z" horiz-adv-x="1000" />

<glyph glyph-name="favourite" unicode="&#xe82e;" d="M502 658c28 30 62 54 96 76 94 60 190 58 286 8 68-36 100-96 112-170 16-96-16-180-76-252-30-36-64-68-96-100-98-96-196-190-294-284-20-20-38-20-58 0-114 108-226 218-340 326-46 44-84 92-110 152-28 64-30 130-10 196 28 90 92 142 182 162 92 20 174-4 246-62 20-18 40-34 62-52z" horiz-adv-x="1000" />

<glyph glyph-name="whatsapp" unicode="&#xe82f;" d="M502 584c-128 0-230-102-230-230-2-44 12-86 36-124l6-8-24-84 86 22 8-4c36-22 76-34 118-34 128 0 230 104 230 232 0 62-24 120-66 164-42 44-102 66-164 66z m134-330c-6-16-34-32-46-34-14-2-26-4-44 2-12 4-22 8-40 16-68 28-116 100-120 104-4 4-28 38-28 70 0 36 18 50 24 58 6 6 16 8 20 8s8 0 14 0c4-2 12 2 16-14 6-14 20-48 22-50 2-4 4-8 2-14-2-4-4-6-6-12-2-4-6-8-12-14-4-4-8-8-4-16 4-6 18-32 38-48 26-24 48-32 56-36s12-2 16 2 18 20 22 26 8 6 16 4c6-2 40-20 46-22 6-2 12-4 14-8 0 8 0-6-6-22z m-136 596c-276 0-500-224-500-500s224-500 500-500 500 224 500 500-224 500-500 500z m0-774c-46 0-90 12-132 34l-146-40 40 144c-24 42-38 88-38 140 0 152 124 276 276 276 74 0 144-28 194-82 54-50 82-122 80-194 4-154-120-278-274-278z" horiz-adv-x="1000" />

<glyph glyph-name="credit" unicode="&#xe830;" d="M900 750h-800c-56 0-100-44-100-100v-600c0-56 44-100 100-100h800c56 0 100 44 100 100v600c0 56-44 100-100 100z m0-700h-800v300h800v-300z m0 500h-800v100h800v-100z" horiz-adv-x="1000" />

<glyph glyph-name="fb-isolated" unicode="&#xe831;" d="M760 684h-94c-74 0-88-36-88-86v-114h176l-22-178h-154v-456h-184v456h-154v178h154v132c-12 116 74 222 192 234 12 0 24 0 36 0 44 0 90-2 134-8l4-158z" horiz-adv-x="1000" />

<glyph glyph-name="help" unicode="&#xe832;" d="M500-150c-276 0-500 224-500 500s224 500 500 500 500-224 500-500c0 0 0 0 0 0 0-276-224-500-500-500z m-416 500c0-230 188-416 416-416 230 0 416 188 416 416 0 230-186 416-416 416-230 0-416-186-416-416 0 0 0 0 0 0z m544-32c-34-20-54-32-54-52v-22c0-12-8-20-20-22 0 0 0 0-2 0h-104c-12 0-20 8-22 20 0 0 0 0 0 2v46c0 80 58 106 104 126 46 20 64 30 64 60 0 30-48 66-90 66-22 0-44-6-62-18-20-16-38-34-52-54-4-6-10-8-16-8-4 0-8 2-12 4l-70 54c-8 6-10 18-4 28 46 80 132 128 224 126 116 2 214-82 226-198-2-70-46-132-110-158l0 0z m-54-270c0-12-8-20-20-22 0 0 0 0-2 0h-104c-12 0-20 10-20 20 0 0 0 0 0 0v104c0 12 8 20 20 22 0 0 0 0 2 0h104c12 0 20-8 22-20 0 0 0 0 0-2v-102z" horiz-adv-x="1000" />

<glyph glyph-name="spin" unicode="&#xe833;" d="M46 144l0 0c0 0-1 0-1 0-8 18-15 37-21 55-6 19-11 38-15 58-19 99-8 203 35 298 3 6 10 8 15 5 1 0 2 0 2-1l0 0 80-59c5-3 6-9 4-14-5-12-9-25-12-37-4-13-7-26-9-40-11-67-3-137 23-201 2-5 0-10-4-13l0 0-80-56c-5-4-12-2-16 3-1 0-1 1-1 2l0 0z m120 574l0 0c0 1 0 1 0 1 15 13 30 25 46 37 16 11 33 22 51 31 89 50 192 72 297 60 6-1 10-6 10-13 0-1-1-1-1-2l0 0-31-94c-2-5-8-8-13-7-13 0-27 0-40 0-14-1-27-2-40-4-68-11-133-40-186-84-4-3-10-3-14 0l0 0-79 58c-5 3-6 11-2 16 0 0 1 1 2 1l0 0z m588 65l0 0c0 0 1 0 1 0 17-10 34-21 50-32 16-12 31-25 46-38 74-69 127-160 148-262 2-6-2-12-9-13-1 0-1 0-2 0l0 0-100 1c-5 0-10 4-11 9-3 13-8 26-12 38-5 12-10 25-17 36-31 61-78 113-137 150-5 3-6 8-5 13l0 0 31 92c2 6 9 9 15 7 1 0 2-1 2-1l0 0z m244-535l0 0c0 0 0 0 0 0-4-20-9-39-15-57-7-19-14-37-22-55-44-92-114-170-205-221-6-3-13-1-16 4 0 1-1 2-1 2l0 0-30 94c-2 6 1 12 6 14 11 7 22 15 32 23 11 9 21 18 30 27 49 48 84 109 101 176 2 5 6 8 11 8l0 0 98-1c6 0 11-5 11-11 0-1 0-2 0-3l0 0z m-438-395l0 0c0 0 0 0 0 0-20-2-40-3-60-3-20 0-40 1-59 4-102 12-198 54-276 125-5 4-5 11 0 16 0 0 1 1 1 1l0 0 81 58c5 3 12 2 16-2 10-8 20-16 32-23 11-7 22-14 34-20 62-31 131-45 200-41 6 0 10-3 12-8l0 0 29-92c2-6-1-12-7-14-1-1-2-1-3-1l0 0z" horiz-adv-x="1000" />

<glyph glyph-name="settings" unicode="&#xe834;" d="M120 642h-120v82h120v-82z m416-334h-536v84h536v-84z m-334-334h-202v84h202v-84z m214 792v-166c0-22-18-42-42-42h-166c-22 0-42 18-42 42v166c0 22 18 42 42 42h166c24 0 42-18 42-42z m84-666v-166c0-22-18-42-42-42h-166c-22 0-42 18-42 42v166c0 22 18 42 42 42h166c22 0 42-18 42-42z m500 542h-538v82h538l0-82z m0-666h-458v84h458l0-84z m-166 458v-166c0-22-18-42-42-42h-166c-22 0-42 18-42 42v166c0 22 18 42 42 42h166c22-2 40-20 42-42z m166-126h-124v84h124v-84z" horiz-adv-x="1000" />

<glyph glyph-name="spid-isolated" unicode="&#xe835;" d="M784 566c0-156-128-284-284-284s-284 128-284 284 128 284 284 284 284-128 284-284z m0-716c0 4 0 10 0 14 0 156-128 284-284 284s-284-128-284-284c0-4 0-10 0-14h568z" horiz-adv-x="1000" />

<glyph glyph-name="trash" unicode="&#xe836;" d="M920 624c0-15-8-22-22-22 0 0 0 0 0 0h-66v-621c7-65-36-124-102-131h-540c-66 7-110 66-102 131v621h-66c-15 0-22 7-22 14 0 0 0 0 0 0v44c0 15 7 22 22 22 0 0 0 0 0 0h197l51 110c15 36 44 58 88 58h204c37 0 73-22 88-58l43-110h205c14 0 22-7 22-22 0 0 0 0 0 0l0-36z m-168-22h-584v-621c0-22 7-36 22-51h540c15 15 22 29 22 51l0 621z m-416-526c0-14-7-22-22-22 0 0 0 0 0 0h-44c-14 0-22 8-22 22 0 0 0 0 0 0v380c0 14 8 22 22 22 0 0 0 0 0 0h44c15 0 22-8 22-22 0 0 0 0 0 0v-380z m270 606l-29 73c0 0-8 7-15 7h-204c-8 0-8-7-15-7l-29-73h292z m-102-606c0-14-8-22-22-22 0 0 0 0 0 0h-44c-15 0-22 8-22 22 0 0 0 0 0 0v380c0 14 7 22 22 22 0 0 0 0 0 0h44c14 0 22-8 22-22 0 0 0 0 0 0v-380z m160 0c0-14-7-22-22-22 0 0 0 0 0 0h-36c-15 0-22 8-22 22 0 0 0 0 0 0v380c0 14 7 22 22 22 0 0 0 0 0 0h44c14 0 22-8 22-22 0 0 0 0 0 0v-380z" horiz-adv-x="920" />

<glyph glyph-name="profiles" unicode="&#xe837;" d="M998 150c-28 94-94 170-180 214 56 46 92 116 92 194 0 136-112 248-248 248-114 0-210-78-238-182-28 10-56 16-88 16-136 0-248-112-248-248 0-78 36-148 92-194-86-42-152-120-180-214-6-20-2-40 10-56 12-16 30-26 52-26h546c20 0 38 10 52 26 12 16 16 38 10 56-8 30-22 58-38 84h302c20 0 38 10 52 26 14 14 18 36 12 56z m-336 592c102 0 186-84 186-186 0-102-84-186-186-186-28 0-54 6-78 18 0 0 0 2 0 2 0 84-42 158-104 202 16 86 92 150 182 150z m-512-354c0 102 84 186 186 186s186-84 186-186c0-102-84-186-186-186s-186 84-186 186z m462-426c0-2-2-2-2-2h-546c0 0-2 0-2 2 0 2 0 2 0 2 26 90 98 164 188 192 28-10 56-16 88-16 30 0 60 6 88 16 90-28 162-102 188-192-2 0 0 0-2-2z m326 168c0-2-2-2-2-2h-352c-28 28-58 50-94 68 40 32 70 76 84 128 28-10 56-16 88-16 30 0 60 6 88 16 90-28 162-102 188-192 0 0 2-2 0-2z" horiz-adv-x="1000" />

<glyph glyph-name="themes" unicode="&#xe838;" d="M432 378h-398c-20 0-34 14-34 32v398c0 18 14 34 34 34h398c18 0 34-14 34-34v-398c-2-18-16-32-34-32z m-366 66h330v332h-330v-332z m900-66h-398c-18 0-34 14-34 34v396c0 18 14 34 34 34h398c18 0 34-14 34-34v-398c0-18-14-32-34-32z m-364 66h330v332h-330v-332z m-170-586h-398c-18 0-34 14-34 34v398c0 18 14 34 34 34h398c18 0 34-14 34-34v-398c-2-20-16-34-34-34z m-366 66h330v332h-330v-332z m900-66h-398c-18 0-34 14-34 34v398c0 18 14 34 34 34h398c18 0 34-14 34-34v-398c0-20-14-34-34-34z m-364 66h330v332h-330v-332z" horiz-adv-x="1000" />

<glyph glyph-name="public" unicode="&#xe839;" d="M966-80h-58l0 416h4c16 0 32 0 48 0 0 0 0 0 0 0 18 0 30 8 36 22 6 14 2 28-12 42-110 106-220 210-330 316l-128 122c-20 18-36 18-56 0-16-16-34-32-50-48l-86-82c-104-106-210-208-316-310-6-6-22-20-12-42 8-22 30-22 38-22 16 0 32 0 46 0l6 0 0-416h-60c-20 0-34-16-34-34 0-20 16-34 34-34h930c20 0 34 16 34 34 0 20-16 36-34 36z m-380 414v-414h-182v414l182 0z m64 0l186 0v0l0-414h-186v414z m-148 432l376-362h-754l378 362z m-336-432l174 0v-414h-174l0 414z" horiz-adv-x="1000" />

<glyph glyph-name="download" unicode="&#xe83a;" d="M498 138l-220 220 58 58 120-120v554h84v-556l124 122 58-60-224-218z m418 188h-90v-84l90 0 0-94h0v-214c0 0 0 0 0 0l-834 0 0 262h0v46c0 0 0 0 0 0l90 0v84h-88c-46 0-84-38-84-84v-46-48-214c0-46 38-84 84-84h834c46 0 84 38 84 84v214 48 46c-2 46-40 84-86 84z" horiz-adv-x="1000" />

<glyph glyph-name="success" unicode="&#xe83b;" d="M904 744c34-34 66-66 96-96-230-230-462-462-692-692-102 102-206 206-308 308 30 30 62 62 94 94 68-68 140-140 212-212 200 202 400 400 598 598z" horiz-adv-x="1000" />

<glyph glyph-name="save" unicode="&#xe83c;" d="M774 804c-30 30-66 46-108 46-180 0-358 0-538 0l-68 0c-38 0-60-24-60-62 0-292 0-584 0-876 0-8 0-14 2-20 8-26 28-42 60-42 106 0 212 0 318 0l120 0 124 0c104 0 210 0 314 0 40 0 62 22 62 62l0 102c0 166 0 334 0 500 0 42-16 80-46 110-60 62-120 122-180 180z m-364-130c0 24 0 46 0 70 0 24 10 34 34 34 38 0 76 0 114 0 22 0 32-10 32-32 0-66 0-134 0-200 0-22-10-32-32-32-20 0-38 0-58 0-20 0-38 0-58 0-22 0-32 10-32 34 0 24 0 46 0 70l0 30 0 26z m348-750h-516v262h516v-262z m170 12c0-2 0-2 0-4l0-8h-96v20c0 24 0 50 0 74 0 58 0 120 0 180 0 18-6 34-18 46-12 12-28 18-46 18 0 0 0 0 0 0-178-2-358-2-536 0 0 0 0 0 0 0-18 0-34-6-46-18-12-12-18-28-18-46 2-60 0-120 0-180 0-24 0-48 0-74v-20h-94v852h96l0-96c0-60 0-118 0-178 0-40 22-62 64-62 122 0 246 0 368 0 40 0 64 22 64 64l0 276 6-2c18-4 38-8 52-24 70-70 128-128 182-182 14-16 24-34 24-56 0-156 0-312 0-468l-2-112z" horiz-adv-x="1000" />

<glyph glyph-name="gplus-isolated" unicode="&#xe83d;" d="M318 32c-176 0-318 142-318 318s142 318 318 318c80 2 156-28 214-84l-86-82c-34 32-80 50-126 50-112-2-200-92-198-202 0-110 88-200 198-200 86-6 164 54 180 138h-180v108h300c4-16 6-34 6-52 10-162-112-302-274-312-12 0-24 0-34 0z m682 272h-92v-92h-92v92h-92v92h92v94h92v-92h92v-94z" horiz-adv-x="1000" />

<glyph glyph-name="instagram-isolated" unicode="&#xe83e;" d="M996 766c-8 44-48 76-92 84 0 0 0 0-4 0h-800c-8-4-12-4-16-4-44-12-76-48-84-92 0 0 0 0 0-4v-800c0-4 4-12 4-16 12-44 48-80 92-84 4 0 4 0 8 0h792c4 0 12 4 16 4 44 8 76 44 84 84 4 4 4 8 4 12v804c-4 4-4 8-4 12z m-494-212c116 0 208-96 204-208-4-112-96-204-208-200-108 4-200 92-200 208 4 112 92 200 204 200z m386-116c0-148 0-296 0-444 0-20-20-40-40-40-232 0-466 0-702 0-20 0-40 20-40 40 0 148 0 296 0 444v4c32 0 64 0 96 0-24-84-20-168 24-244 28-52 68-92 120-120 104-56 232-48 326 16 40 24 68 56 92 96 24 36 40 80 44 124 8 44 4 88-16 128h96v-4z m4 196c0-20-20-40-40-40-16 0-32 0-48 0-12 0-28 0-44 0-20 0-36 12-40 28-4 4-4 8-4 12 0 32 0 64 0 96 0 20 16 40 40 40 32 0 64 0 96 0 20 0 40-16 40-40 0-32 0-64 0-96z" horiz-adv-x="1000" />

<glyph glyph-name="mail-isolated" unicode="&#xe83f;" d="M948 744c-150-166-298-334-444-500-146 166-294 334-440 500 294 0 586 0 884 0z m-948-714c0 214 0 426 0 640 0 8 4 20 4 32 108-120 210-238 314-358-104-116-210-226-314-342 0 8-4 20-4 28z m60-74c104 112 206 222 306 334 44-52 88-100 130-150 44 52 88 100 134 150 100-112 198-222 302-334-290 0-578 0-872 0z m940 74c0-12-4-24-8-40-108 120-210 230-314 350 104 120 210 234 314 354 0-12 4-20 4-28 4-210 4-422 4-636z" horiz-adv-x="1000" />

<glyph glyph-name="tw-isolated" unicode="&#xe840;" d="M890 554c0-12 0-16 0-30 0-268-208-576-576-576-114 0-224 36-314 92 16 0 36 0 46 0 98 0 184 36 252 84-90 0-166 62-188 142 12 0 22-6 38-6s36 0 52 6c-90 16-166 104-166 200l0 0c30-16 58-22 90-22-58 36-90 98-90 172 0 38 12 74 30 104 104-126 252-204 418-210 6 12 6 22 6 38 0 114 90 204 208 204 58 0 110-22 148-62 46 12 90 30 132 52-16-46-46-84-90-114 38 6 80 16 114 36-36-48-72-80-110-110z" horiz-adv-x="1000" />

<glyph glyph-name="yt-isolated" unicode="&#xe841;" d="M988 562c0 0-10 68-38 104-38 44-82 44-98 44-142 12-348 12-348 12s-214 0-350-12c-16 0-64 0-102-46-26-30-38-104-38-104s-14-86-14-170v-80c0-88 12-170 12-170s10-68 38-104c36-38 88-38 110-46 78-12 336-12 336-12s212 0 348 12c16 6 58 6 96 46 26 30 38 104 38 104s12 88 12 170l6 80c4 88-8 172-8 172z m-610-394v368l306-188-306-180z" horiz-adv-x="1000" />

<glyph glyph-name="cog" unicode="&#xe842;" d="M590-150h-182c-34 0-64 26-68 60l-14 96c-14 8-28 16-42 24l-90-38c-32-12-68 0-84 30l-88 158c-16 28-10 66 16 86l76 60c0 8 0 16 0 24s0 16 0 24l-76 60c-24 20-32 56-16 84l90 158c16 28 52 42 82 30l90-36c14 8 28 18 42 24l16 96c4 34 32 60 68 60h182c34 0 64-26 66-60l14-96c14-8 28-16 40-24l92 38c32 12 68 0 84-30l90-156c18-30 10-66-16-88l-76-60c0-8 0-16 0-24 0-8 0-16 0-24l76-60c24-20 30-54 16-82l-92-158c-16-30-52-42-84-30l-90 36c-14-8-28-18-42-24l-14-96c-4-38-32-62-66-62z m-158 90h140l18 126 24 10c24 12 48 26 70 42l20 16 118-48 72 122-104 78 4 26c0 12 0 26 0 40 0 12 0 26 0 40l-4 26 100 78-72 122-118-50-20 16c-20 16-42 28-66 38l-24 10-18 126h-142l-18-126-24-10c-24-10-48-22-70-38l-20-16-118 48-72-122 100-80-4-26c0-12 0-26 0-40 0-12 0-26 0-40l4-26-100-78 72-118 118 48 20-16c20-16 42-28 66-38l24-10 24-130z m68 206c-114 0-204 92-204 204s90 206 204 206 204-92 204-206-92-204-204-204l0 0z m0 318c-62 0-114-52-112-114 0-62 52-114 114-112 62 0 112 50 112 114 0 62-52 112-114 112z" horiz-adv-x="1000" />

<glyph glyph-name="hamburger" unicode="&#xe843;" d="M1000 626h-1000v92h1000v-92z m0-228h-1000v-92h1000v92z m0-324h-1000v-92h1000v92z" horiz-adv-x="1000" />

<glyph glyph-name="kebab" unicode="&#xe844;" d="M626 726c0-68-56-124-124-124s-124 56-124 124 54 124 122 124 126-56 126-124z m-126-252c-68 0-124-56-124-124s56-124 124-124 124 56 124 124-54 124-124 124z m0-376c-68 0-124-56-124-124s56-124 124-124 124 56 124 124-54 124-124 124z" horiz-adv-x="1000" />

<glyph glyph-name="office" unicode="&#xe845;" d="M500 570h500v-702h-1000v902h500v-200z m-300 0v100h-102v-100h102z m0-202v102h-102v-100l102-2z m0-200v100h-102v-100h102z m0-198v100h-102v-100l102 0z m200 600v100h-100v-100h100z m0-202v102h-100v-100l100-2z m-2-200v100h-98v-100h98z m0-198v100h-98v-100l98 0z m502 0v500h-400v-100h100v-100h-100v-100h100v-100h-100v-100l400 0z m-100 398v-100h-102v100h102z m0-200v-100h-102v100h102z" horiz-adv-x="1000" />

<glyph glyph-name="plus-circle" unicode="&#xe846;" d="M500 850c-276 0-500-224-500-500s224-500 500-500 500 224 500 500-224 500-500 500z m250-550h-200v-200h-100v200h-200v100h200v200h100v-200h200v-100z" horiz-adv-x="1000" />

<glyph glyph-name="rotate-sx" unicode="&#xe847;" d="M0 408c24 132 48 264 72 396 38-38 76-76 114-114 130 118 280 162 452 122 120-28 216-96 284-202 142-218 84-506-126-652-218-152-482-84-610 54 30 30 62 62 94 94 86-80 186-112 300-94 86 14 154 56 210 122 116 142 102 358-48 482-140 116-338 98-458-20 38-38 76-76 114-114-134-26-266-50-398-74z" horiz-adv-x="1000" />

<glyph glyph-name="caret-bottom" unicode="&#xe848;" d="M1010 618h-1000l500-556 500 556z" horiz-adv-x="1000" />

<glyph glyph-name="caret-left" unicode="&#xe849;" d="M708-150v1000l-556-500 556-500z" horiz-adv-x="1000" />

<glyph glyph-name="caret-right" unicode="&#xe84a;" d="M314 850v-1000l556 500-556 500z" horiz-adv-x="1000" />

<glyph glyph-name="caret-top" unicode="&#xe84b;" d="M0 72h1000l-500 556-500-556z" horiz-adv-x="1000" />

<glyph glyph-name="col-1" unicode="&#xe84c;" d="M0 50h1000v-150h-1000v150z m0 250h1000v-150h-1000v150z m0 250h1000v-150h-1000v150z m0 250h1000v-150h-1000v150z" horiz-adv-x="1000" />

<glyph glyph-name="col-11" unicode="&#xe84d;" d="M0 50h450v-150h-450v150z m0 250h450v-150h-450v150z m0 250h450v-150h-450v150z m0 250h450v-150h-450v150z m550-750h450v-150h-450v150z m0 250h450v-150h-450v150z m0 250h450v-150h-450v150z m0 250h450v-150h-450v150z" horiz-adv-x="1000" />

<glyph glyph-name="col-13" unicode="&#xe84e;" d="M0 50h200v-150h-200v150z m0 250h200v-150h-200v150z m0 250h200v-150h-200v150z m0 250h200v-150h-200v150z m300-750h700v-150h-700v150z m0 250h700v-150h-700v150z m0 250h700v-150h-700v150z m0 250h700v-150h-700v150z" horiz-adv-x="1000" />

<glyph glyph-name="col-111" unicode="&#xe84f;" d="M400 50h200v-150h-200v150z m0 250h200v-150h-200v150z m0 250h200v-150h-200v150z m0 250h200v-150h-200v150z m300-750h300v-150h-300v150z m0 250h300v-150h-300v150z m0 250h300v-150h-300v150z m0 250h300v-150h-300v150z m-700-750h300v-150h-300v150z m0 250h300v-150h-300v150z m0 250h300v-150h-300v150z m0 250h300v-150h-300v150z" horiz-adv-x="1000" />

<glyph glyph-name="col-121" unicode="&#xe850;" d="M0 50h200v-150h-200v150z m0 250h200v-150h-200v150z m0 250h200v-150h-200v150z m0 250h200v-150h-200v150z m300-750h400v-150h-400v150z m0 250h400v-150h-400v150z m0 250h400v-150h-400v150z m0 250h400v-150h-400v150z m500-750h200v-150h-200v150z m0 250h200v-150h-200v150z m0 250h200v-150h-200v150z m0 250h200v-150h-200v150z" horiz-adv-x="1000" />

<glyph glyph-name="col-1111" unicode="&#xe851;" d="M550 50h150v-150h-150v150z m0 250h150v-150h-150v150z m0 250h150v-150h-150v150z m0 250h150v-150h-150v150z m-250-750h150v-150h-150v150z m0 250h150v-150h-150v150z m0 250h150v-150h-150v150z m0 250h150v-150h-150v150z m-300-750h200v-150h-200v150z m0 250h200v-150h-200v150z m0 250h200v-150h-200v150z m0 250h200v-150h-200v150z m800-750h200v-150h-200v150z m0 250h200v-150h-200v150z m0 250h200v-150h-200v150z m0 250h200v-150h-200v150z" horiz-adv-x="1000" />

<glyph glyph-name="collapse" unicode="&#xe852;" d="M460 352h-308c-18 0-34-16-34-34 0-10 4-18 10-24l98-98c4-4 8-6 12-8l-240-240 98-98 238 238 106-106c8-12 24-16 38-10 14 6 24 18 22 34 0 102 0 200 0 304 0 32-10 40-40 42z m394 78l-90 86 236 238-96 96-238-236-6 6-98 100c-10 12-24 16-38 10-14-6-24-20-22-36 0-52 0-106 0-158 0-48 0-98 0-146 0-28 10-38 38-38h308c14 0 26 8 32 22 6 12 4 26-6 34l-20 22z" horiz-adv-x="1000" />

<glyph glyph-name="expand" unicode="&#xe853;" d="M404 352l-238-238-106 104c-8 12-24 16-38 10-14-6-24-20-24-34 0-102 0-200 0-304 2-30 12-40 40-40h308c18 0 34 16 34 34 0 10-4 18-10 24l-98 100c-4 4-8 6-12 8l240 240-96 96z m596 460c0 28-10 38-38 38h-308c-14 0-26-8-32-22-6-12-4-26 6-34l20-20 90-88-238-236 96-98 236 236 6-6 100-100c10-12 24-16 38-10 14 6 24 20 22 36 0 50 0 104 0 158s2 102 2 146z" horiz-adv-x="1000" />

<glyph glyph-name="copy" unicode="&#xe854;" d="M564-22h-334c-52-4-96 36-100 88 0 4 0 8 0 12 0 224 0 448 0 672-4 52 36 96 88 100 4 0 8 0 12 0h670c52 4 96-36 100-88 0-4 0-8 0-12 0-226 0-452 0-676 2-52-40-96-92-96-2 0-4 0-4 0l-340 0z m-368 436c0-112 0-222 0-334 0-28 10-38 38-38h666c28 0 38 10 38 38 0 222 0 444 0 666 0 28-10 38-38 38h-670c-16 2-32-10-36-26 0-4 0-6 0-10 2-110 2-222 2-334z m-116 308c-48-8-84-50-80-98 0-224 0-448 0-674-2-52 38-98 90-100 4 0 6 0 10 0h638c18-2 36-2 54 0 44 8 78 46 76 92h-62c-10-26-16-30-44-30h-662c-26 0-38 10-38 38 0 4 0 10 0 14 0 216 0 432 0 648 0 22 4 40 30 44v68l-12-2z" horiz-adv-x="1000" />

<glyph glyph-name="document" unicode="&#xe855;" d="M880 250c0 110 0 220 0 330 0 24-8 48-24 66l-66 72-90 98c-20 22-48 34-76 34h-406c-50 4-94-34-98-86 0-4 0-6 0-10 0-96 0-190 0-286v-232c0-100 0-196 0-292-2-50 38-94 90-96 2 0 4 0 6 0h568c50-2 94 36 98 86 0 2 0 6 0 8 0 34 0 68 0 102v206z m-76 214c0-172 0-344 0-518 0-16-4-20-20-20h-564c-22 0-24 4-24 24v798c0 2 0 6 0 10 0 12 6 18 18 18h402v-142c0-4 0-6 0-10 0-24 18-42 42-42 2 0 2 0 4 0h142l0-118z m-282 10h-230v-60h230v60z m-230-184h406v60h-406v-60z m0-124h358v60h-358v-60z m0-124h292v60h-292v-60z" horiz-adv-x="1000" />

<glyph glyph-name="felafel" unicode="&#xe856;" d="M876 476c-70 0-126-56-126-124 0-70 56-126 124-126 70 0 126 56 126 124 0 0 0 0 0 0 0 68-56 126-124 126 0 0 0 0 0 0z m-376 0c-70 0-126-56-126-124 0-70 56-126 124-126 70 0 126 56 126 124 0 0 0 0 0 0 2 68-54 126-124 126 0 0 0 0 0 0z m-374 0c-70 0-126-56-126-126s56-126 126-126 126 56 126 126c0 68-56 126-126 126 0 0 0 0 0 0z" horiz-adv-x="1000" />

<glyph glyph-name="grid" unicode="&#xe857;" d="M900 850h-800c-56 0-100-44-100-100v-800c0-56 44-100 100-100h800c56 0 100 44 100 100v800c0 56-44 100-100 100z m-600-900h-200v200h200v-200z m0 300h-200v200h200v-200z m0 300h-200v200h200v-200z m300-600h-200v200h200v-200z m0 300h-200v200h200v-200z m0 300h-200v200h200v-200z m300-600h-200v200h200v-200z m0 300h-200v200h200v-200z m0 300h-200v200h200v-200z" horiz-adv-x="1000" />

<glyph glyph-name="image" unicode="&#xe858;" d="M946 594c-50 0-100 4-154 6-18 0-26 8-26 24-2 16-4 46-6 70-8 54-20 64-76 60l-536-44c-34-2-66-4-98-10-42-4-50-16-50-56 0-8 0-14 0-22 14-140 28-280 42-420 8-72 8-72 84-80 0-28 0-54 0-82 0-42 16-60 62-60 66 0 132-4 196-8 170-8 340-18 510-24 60-2 74 10 76 64 10 174 20 348 30 522 0 38-18 58-54 60z m-788-22c-8-82-12-162-14-242-2-28-16-54-40-72-4 42-10 74-12 110-8 78-14 158-22 236-2 26 8 36 34 38l450 34c36 2 70 6 104 10 22 2 34-6 38-24 4-18 4-34 6-56l-266 12c-72 4-142 8-214 10-44-2-62-18-64-56z m742-468l-6-4-182 196-86-68-154 166-260-262-6 4c2 52 6 106 8 158 4 74 8 150 12 222 0 28 10 36 40 36l624-28c24 0 36-10 34-32-6-130-14-260-24-388z m-116 382c-38 2-70-26-72-64 0-2 0-4 0-6 0-36 30-66 66-66 2 0 4 0 6 0 38-4 70 24 74 60 0 2 0 4 0 6-2 38-34 70-72 68 0 2 0 2-2 2z" horiz-adv-x="1000" />

<glyph glyph-name="list" unicode="&#xe859;" d="M0 824v-132h1000v132h-1000z m0-406h912v132h-912v-132z m722-136h-722v-132h722v132z m-722-406h816v132h-816v-132z" horiz-adv-x="1000" />

<glyph glyph-name="move" unicode="&#xe85a;" d="M288 64c42 0 82 0 120 0 18 0 22 6 22 22 0 56 0 114 0 170 0 16-6 22-22 22-58 0-114 0-172 0-16 0-22-6-22-22 0-38 0-78 0-122-6 4-10 10-16 14l-192 186c-10 10-14 16 0 26l192 192c4 4 8 6 14 8 0-12 0-18 0-26 0-32 0-62 0-94 0-14 4-22 20-22h178c12 0 18 4 18 18 0 60 0 120 0 180 0 14-6 16-18 16h-126c4 6 10 10 14 16l188 190c8 8 16 16 26 4l196-194c4-4 6-10 8-14-42 0-80 0-118 0-20 0-26-6-26-26 0-54 0-108 0-164 0-18 6-26 26-26 56 0 110 0 166 0 18 0 24 6 24 24 0 38 0 76 0 112l212-208-210-206v32c0 30 0 58 0 88 0 12-2 20-16 20h-180c-14 0-18-6-18-18 0-60 0-118 0-176 0-16 10-18 22-18h122c-4-6-8-12-14-18l-190-188c-10-10-16-12-26 0l-198 194c-2 0-4 4-4 8z" horiz-adv-x="1000" />

<glyph glyph-name="external-link" unicode="&#xe85b;" d="M1000 150v-216c0-46-38-84-84-84h-832c-46 0-84 38-84 84v832c0 46 38 84 84 84h216v-82l-216 0 0-834 834 0c0 0 0 0 0 0v216h82z m-472 700l0-82 332-2-568-568 58-58 566 564 0-330 84 0v476l-472 0z" horiz-adv-x="1000" />

<glyph glyph-name="star-o" unicode="&#xe85c;" d="M788-128c-6 0-10 2-16 4l-272 144-274-144c-10-6-24-4-34 2-10 8-14 20-12 32l52 304-222 218c-8 8-12 22-8 34 4 12 14 20 26 22l306 44 136 278c6 12 16 18 30 18s24-8 30-18l136-278 306-44c12-2 22-10 26-22 4-12 0-24-8-34l-222-216 52-306c2-12-2-24-12-32-6-4-12-6-20-6z m-288 218c6 0 10-2 16-4l230-122-44 258c-2 10 2 22 10 28l186 182-258 38c-10 2-20 8-24 18l-116 234-116-234c-4-10-14-16-24-18l-258-38 186-182c8-8 12-18 10-28l-44-258 230 122c6 2 10 4 16 4z" horiz-adv-x="1000" />

<glyph glyph-name="attachment" unicode="&#xe85d;" d="M260-98c-134 0-248 104-258 236-8 82 18 152 76 210 130 130 260 260 390 390 24 24 58 16 66-14 4-12 0-24-8-34-2-4-6-6-8-10-130-130-258-258-388-388-102-102-56-272 80-312 68-18 128-4 178 44 14 12 26 26 40 40 154 154 308 308 462 462 34 34 44 82 28 124-30 74-122 94-180 38-12-10-22-22-34-32-130-126-258-254-386-384-10-10-18-22-14-38 4-28 38-40 60-24 4 2 6 6 10 10 102 106 206 210 310 314 10 10 20 16 32 16 14 0 26-8 32-20 6-14 4-26-4-38-2-2-4-4-6-6-106-110-212-216-318-322-58-58-154-38-184 36-18 44-10 86 24 118 140 144 282 286 426 426 52 52 118 66 188 42 70-24 112-74 124-146 10-60-6-112-48-158-12-14-26-28-40-40-154-152-308-306-462-460-52-52-116-80-188-80z" horiz-adv-x="1000" />

<glyph glyph-name="dashboard" unicode="&#xe85e;" d="M976 418c-58 194-234 334-436 348-84 6-164-6-238-38-208-92-326-304-298-528 12-90 48-172 106-248 12-14 26-20 44-20 0 0 0 0 0 0 88 0 174 0 262 0l164 0c88 0 176 0 264 0 0 0 0 0 0 0 12 0 30 2 42 18 110 142 142 300 90 468z m-142-394c-2-4-6-6-10-6-86 0-174 0-260 0h-142c-82 0-164 0-244 0-6 0-8 2-12 6-60 86-86 180-76 280 14 186 148 332 328 370 28 6 56 8 84 8 190 0 358-130 400-322 26-120 4-232-68-336z m-94 374c18-18 18-44 0-64l-18-20c-52-64-104-126-158-190-12-14-22-22-32-30-8-4-16-6-22-8-2 0-6-2-8-2l-2 0-2 0c-32 2-58 22-68 50-10 28-2 62 22 80 74 62 150 124 224 184 20 18 46 18 64 0z m-524-136c0-22-18-40-40-40s-40 18-40 40 18 40 40 40 40-18 40-40z m88 226c0-22-18-40-40-40s-40 18-40 40 18 40 40 40 40-18 40-40z m240 108c0-22-18-40-40-40s-40 18-40 40 18 40 40 40 40-18 40-40z m238-108c0-22-18-40-40-40s-40 18-40 40 18 40 40 40 40-18 40-40z m78-226c0-22-18-40-40-40s-40 18-40 40 18 40 40 40 40-18 40-40z" horiz-adv-x="1000" />

<glyph glyph-name="star" unicode="&#xe85f;" d="M788-128c-6 0-10 2-16 4l-272 144-274-144c-10-6-24-4-34 2-10 8-14 20-12 32l52 304-222 218c-8 8-12 22-8 34s14 20 26 22l306 44 136 278c6 12 16 18 30 18s24-8 30-18l136-278 306-44c12-2 22-10 26-22s0-24-8-34l-222-216 52-306c2-12-2-24-12-32-6-4-12-6-20-6z" horiz-adv-x="1000" />

<glyph glyph-name="rotate-dx" unicode="&#xe860;" d="M602 480c40 40 78 78 114 114-118 120-316 136-456 22-150-124-164-340-48-482 54-66 124-108 210-122 116-18 216 16 300 94 32-32 62-62 94-94-130-140-392-206-610-54-212 146-270 434-128 652 68 104 164 174 286 202 170 42 320-2 450-122 38 38 76 76 114 114 24-132 48-264 72-396-132 24-264 48-398 72z" horiz-adv-x="1000" />

<glyph glyph-name="mycms" unicode="&#xe861;" d="M984 612l-48 48c-54 54-110 110-164 164-18 18-36 26-62 26 0 0 0 0-2 0-82 0-166 0-248 0-36 0-72 0-108 0-64 0-122-56-124-118 0-50 0-102 0-152l0-42c0-18 12-34 30-40 14-4 28-2 40 6 12 8 18 22 18 38 0 38 0 76 0 112v74c0 28 8 36 36 36l334 0v-62c0-40 0-80 0-120 0-28 18-46 46-46 14 0 28 0 42 0l140 0c0 0 0 0 0 0v-88c0-160 0-320 0-480 0-20-10-30-30-30-14 0-28 0-42 0-12 0-22 0-34 0-14 0-26-4-34-14-8-8-12-18-12-30 0-24 20-42 46-44 12 0 26 0 38 0 10 0 22 0 32 0 66 0 122 58 122 124l0 226c0 126 0 250 0 376 0 14-4 26-16 36z m-138 10h-74v74l74-74z m-276-266l-48 0c-36 0-74 0-110 0-4 0-10 2-12 4-18 16-36 34-52 52l-2 2c-10 12-24 16-38 16 0 0 0 0 0 0-38 0-76 0-116 0h-68c-66 0-124-58-124-124 0-112 0-222 0-334 0-64 58-122 126-122 0 0 0 0 0 0 52 0 104 0 156 0l288 0c70 0 126 56 126 126l0 114c0 46 0 92 0 140 0 34-14 66-36 90-24 22-56 36-90 36z m-482-382c0 112 0 224 0 336 0 26 8 34 34 34l12 0c18 0 36 0 56 0 32 0 64 0 96 0 4 0 8-2 12-4 18-16 36-34 54-54 10-12 24-16 40-16 0 0 0 0 0 0 58 0 116 0 172 0h10c28 0 36-8 36-36 0-86 0-172 0-258 0-28-8-36-36-36-54 0-106 0-160 0h-70v0l-218 0c-30-2-38 6-38 34z" horiz-adv-x="1000" />

<glyph glyph-name="myistance" unicode="&#xe862;" d="M766 816h-24-6c-8 30-22 38-52 38l0 0h-366c-30 0-44-10-52-38h-6c-8 0-16 0-22 0-68 0-124-58-124-124 0-242 0-482 0-724 0-66 58-122 122-122 88 0 178 0 266 0s178 0 266 0c66 0 122 58 122 122 0 242 0 484 0 724 0 66-58 124-124 124z m-502-116c0-30 18-46 46-46h8c20 0 42 0 62 0 6 0 8-2 12-8 20-38 50-60 90-68 36-6 70 4 100 36 8 8 16 20 24 32 4 6 6 6 12 6 20 0 44 0 72 0 28 0 46 18 46 46 0 8 0 16 0 24v8h8c10 0 18 0 26 0 22 0 32-10 32-32 0-40 0-80 0-120v-602c0-38-6-44-44-44h-526c-26 0-36 8-36 36v718c0 38 6 44 44 44h20 6v-6c-2-8-2-16-2-24z m384 40h-70c-28 0-44-16-46-44 0-14-2-24-14-28-12-6-28-8-42 2-6 4-10 16-10 24-2 32-18 46-50 46l0 0c-20 0-40 0-60 0h-6v28h296l2-28 0 0z m-222-608c12-12 24-16 34-16 12 0 24 6 36 18 42 42 86 86 128 128l16 16c14 14 28 28 42 42 12 12 16 28 10 44-6 16-16 26-32 30s-28-2-42-16c-42-42-82-82-124-124l-34-34 0 0c-2 2-4 4-6 6l-74 74c-20 20-46 22-64 4-8-8-12-18-12-30s6-24 16-36l106-106z" horiz-adv-x="1000" />

<glyph glyph-name="key" unicode="&#xe863;" d="M990 600c-24 102-94 182-190 222-98 42-212 34-302-20-136-82-192-254-134-406-50-50-98-98-148-148-60-58-118-118-178-176-22-22-36-52-38-82-4-48 14-88 50-114 24-18 50-26 76-26 18 0 36 4 54 12 6 2 12 8 16 14 4 6 8 12 10 18 6 10 10 18 16 26 14 20 20 38 18 58l72 10-18 44c12-4 24-6 36-10 12-4 22 0 30 8 14 14 28 28 42 42 8 8 12 18 10 30-2 14-4 28-6 40h0c18 0 34 0 50 0 8 0 18 2 24 10 20 20 40 40 66 66 54-22 112-28 170-20 94 14 174 62 226 138 54 78 70 174 48 264z m-670-384l2-16c2-8 2-16 4-24 2-18 6-38 8-58 2-8 0-12-6-16-6-4-6-4-10-4-26 8-52 14-78 20l-28 8c-2 0-4 0-8 2l-8 2 80 80c52 52 106 106 158 158 2 2 4 2 4 4l12 10-6 10c-78 148-12 284 84 348 102 68 236 54 324-36 88-88 102-218 34-322-64-98-208-160-348-84l-10 6-8-8c-6-6-14-14-20-20-18-18-34-34-52-52-6-6-12-10-22-8-20 2-40 2-60 4-8 0-16 0-24 0-2 0-4 0-6 0l-16-4z m-152-204c0-12 0-22 0-34 0-6-2-12-4-16-6-12-14-24-22-38 0-2-2-2-4-2-12-4-28-2-40 6-14 8-24 22-28 38-4 20 2 36 18 54l92 92 28-66-42-6v-14c2-4 2-8 2-14z m678 414c50 76 38 180-28 244-64 62-166 72-242 24l-16-10 274-274 12 16z m-32 94l-142 142c32 4 72-6 104-38 30-30 40-70 38-104z" horiz-adv-x="1000" />

</font>
</defs>
</svg>
